; NON-PLATED HOLES START AT T1
; THROUGH (PLATED) HOLES START AT T100
M48
INCH
T100C0.130000
T101C0.038556
T102C0.125984
T103C0.015748
T104C0.032000
T105C0.038000
T106C0.040000
T107C0.041333
T108C0.035000
T109C0.118000
%
T100
X009657Y002609
X019499Y002609
T101
X018487Y020674
X023488Y010923
X025988Y010923
X025988Y020673
X023488Y020673
X020987Y020674
X020988Y010923
X018488Y010923
T102
X004738Y002649
T103
X016640Y020208
X008514Y019217
X003474Y010154
X011497Y008665
X013240Y018165
X005513Y012159
X010473Y014739
X011497Y011177
X008514Y020691
X012991Y004176
X010989Y018799
X016912Y006646
X008980Y017669
X013991Y018165
X010987Y020168
X027734Y006414
X031237Y003168
T104
X014984Y019214
X014984Y012214
X014984Y018214
X011984Y015214
X011984Y019214
X011984Y016214
X011984Y012214
X014984Y017214
X011984Y013214
X014984Y013214
X014984Y014214
X014984Y016214
X011984Y017214
X011984Y014214
X014984Y015214
X011984Y018214
T105
X028987Y014418
X029987Y013418
X029987Y012418
X029987Y016418
X028987Y015418
X001487Y006168
X001487Y008168
X028987Y012418
X029987Y017418
X029987Y015418
X029987Y014418
X001487Y007168
X028987Y017418
X028987Y016418
X029987Y018418
X029987Y019418
X028987Y019418
X028987Y013418
X028987Y018418
T106
X012944Y002050
X016212Y002050
X012397Y003168
X013487Y003168
X016759Y003168
X014578Y003168
X015668Y003168
X015121Y002050
X014035Y002050
T107
X023488Y014673
X025988Y016673
X018487Y016674
X018487Y014674
X020988Y004923
X018501Y018674
X023488Y006923
X023502Y008923
X018488Y006923
X023488Y016673
X021002Y008923
X025988Y004923
X020988Y006923
X020987Y014674
X018502Y008923
X023488Y004923
X023501Y018673
X020987Y016674
X021001Y018674
X018488Y004923
X025988Y006923
X026001Y018673
X026002Y008923
X025988Y014673
T108
X004487Y016168
X004487Y006168
X004487Y010168
X004487Y009168
X007487Y015168
X007487Y006168
X007487Y017168
X004487Y007168
X007487Y014168
X007487Y010168
X004487Y015168
X007487Y016168
X004487Y017168
X004487Y012168
X007487Y009168
X007487Y008168
X007487Y019168
X004487Y013168
X004487Y008168
X007487Y011168
X004487Y014168
X004487Y018168
X007487Y007168
X007487Y013168
X004487Y019168
X007487Y018168
X007487Y012168
X004487Y011168
T109
X001856Y002639
X003487Y001168
T00
M30
