G04 MADE WITH FRITZING*
G04 WWW.FRITZING.ORG*
G04 DOUBLE SIDED*
G04 HOLES PLATED*
G04 CONTOUR ON CENTER OF CONTOUR VECTOR*
%ASAXBY*%
%FSLAX23Y23*%
%MOIN*%
%OFA0B0*%
%SFA1.0B1.0*%
%ADD10C,0.039370*%
%ADD11C,0.078000*%
%ADD12C,0.072556*%
%ADD13C,0.075333*%
%ADD14C,0.074000*%
%ADD15C,0.200000*%
%ADD16C,0.052000*%
%ADD17C,0.075000*%
%ADD18C,0.162000*%
%ADD19R,0.073944X0.073944*%
%ADD20R,0.043307X0.047244*%
%ADD21R,0.075000X0.075000*%
%ADD22R,0.043307X0.039370*%
%ADD23R,0.078000X0.078000*%
%ADD24R,0.047244X0.043307*%
%ADD25R,0.080000X0.026000*%
%ADD26R,0.177165X0.078740*%
%ADD27R,0.275591X0.275591*%
%ADD28R,0.059055X0.106299*%
%ADD29C,0.024000*%
%ADD30C,0.016000*%
%ADD31C,0.032000*%
%ADD32C,0.048000*%
%ADD33R,0.001000X0.001000*%
%LNCOPPER1*%
G90*
G70*
G54D10*
X2773Y641D03*
X3124Y317D03*
X1399Y1817D03*
X1324Y1817D03*
X1150Y1118D03*
G54D11*
X2899Y1942D03*
X2899Y1842D03*
X2899Y1742D03*
X2899Y1642D03*
X2899Y1542D03*
X2899Y1442D03*
X2899Y1342D03*
X2899Y1242D03*
X2899Y1942D03*
X2899Y1842D03*
X2899Y1742D03*
X2899Y1642D03*
X2899Y1542D03*
X2899Y1442D03*
X2899Y1342D03*
X2899Y1242D03*
X2999Y1242D03*
X2999Y1342D03*
X2999Y1442D03*
X2999Y1542D03*
X2999Y1642D03*
X2999Y1742D03*
X2999Y1842D03*
X2999Y1942D03*
G54D10*
X1691Y665D03*
G54D12*
X2099Y2067D03*
G54D13*
X2100Y1867D03*
X2099Y1467D03*
X2099Y1667D03*
G54D12*
X1849Y1092D03*
G54D13*
X1850Y892D03*
X1849Y492D03*
X1849Y692D03*
G54D12*
X2599Y1092D03*
G54D13*
X2600Y892D03*
X2599Y492D03*
X2599Y692D03*
G54D12*
X2349Y1092D03*
G54D13*
X2350Y892D03*
X2349Y492D03*
X2349Y692D03*
G54D12*
X1849Y2067D03*
G54D13*
X1850Y1867D03*
X1849Y1467D03*
X1849Y1667D03*
G54D12*
X2099Y1092D03*
G54D13*
X2100Y892D03*
X2099Y492D03*
X2099Y692D03*
G54D12*
X2349Y2067D03*
G54D13*
X2350Y1867D03*
X2349Y1467D03*
X2349Y1667D03*
G54D12*
X2599Y2067D03*
G54D13*
X2600Y1867D03*
X2599Y1467D03*
X2599Y1667D03*
G54D10*
X1047Y1474D03*
X1150Y867D03*
X1299Y418D03*
X1664Y2021D03*
X851Y2069D03*
G54D14*
X1676Y317D03*
X1567Y317D03*
X1458Y317D03*
X1349Y317D03*
X1240Y317D03*
X1621Y205D03*
X1512Y205D03*
X1404Y205D03*
X1294Y205D03*
G54D15*
X1950Y261D03*
X966Y261D03*
G54D14*
X1676Y317D03*
X1567Y317D03*
X1458Y317D03*
X1349Y317D03*
X1240Y317D03*
X1621Y205D03*
X1512Y205D03*
X1404Y205D03*
X1294Y205D03*
G54D15*
X1950Y261D03*
X966Y261D03*
G54D16*
X1198Y1921D03*
X1198Y1821D03*
X1198Y1721D03*
X1198Y1621D03*
X1198Y1521D03*
X1198Y1421D03*
X1198Y1321D03*
X1198Y1221D03*
X1498Y1221D03*
X1498Y1321D03*
X1498Y1421D03*
X1498Y1521D03*
X1498Y1621D03*
X1498Y1721D03*
X1498Y1821D03*
X1498Y1921D03*
X1198Y1921D03*
X1198Y1821D03*
X1198Y1721D03*
X1198Y1621D03*
X1198Y1521D03*
X1198Y1421D03*
X1198Y1321D03*
X1198Y1221D03*
X1498Y1221D03*
X1498Y1321D03*
X1498Y1421D03*
X1498Y1521D03*
X1498Y1621D03*
X1498Y1721D03*
X1498Y1821D03*
X1498Y1921D03*
G54D17*
X749Y617D03*
X449Y617D03*
X749Y717D03*
X449Y717D03*
X749Y817D03*
X449Y817D03*
X749Y917D03*
X449Y917D03*
X749Y1017D03*
X449Y1017D03*
X749Y1117D03*
X449Y1117D03*
X749Y1217D03*
X449Y1217D03*
X749Y1317D03*
X449Y1317D03*
X749Y1417D03*
X449Y1417D03*
X749Y1517D03*
X449Y1517D03*
X749Y1617D03*
X449Y1617D03*
X749Y1717D03*
X449Y1717D03*
X749Y1817D03*
X449Y1817D03*
X749Y1917D03*
X449Y1917D03*
G54D18*
X474Y265D03*
X186Y264D03*
X349Y117D03*
X474Y265D03*
X186Y264D03*
X349Y117D03*
G54D10*
X1099Y2017D03*
X1099Y1880D03*
X898Y1767D03*
X851Y1922D03*
G54D11*
X149Y817D03*
X149Y717D03*
X149Y617D03*
G54D10*
X347Y1015D03*
X551Y1216D03*
G54D19*
X2098Y2067D03*
X1848Y1092D03*
X2598Y1092D03*
X2348Y1092D03*
X1848Y2067D03*
X2098Y1092D03*
X2348Y2067D03*
X2598Y2067D03*
G54D20*
X349Y850D03*
X349Y917D03*
X349Y717D03*
X349Y784D03*
G54D21*
X749Y617D03*
G54D22*
X1049Y1717D03*
X1116Y1717D03*
X1047Y1624D03*
X1114Y1624D03*
X1047Y1424D03*
X1114Y1424D03*
X1097Y1824D03*
X1164Y1824D03*
X1598Y1921D03*
X1665Y1921D03*
G54D23*
X149Y817D03*
G54D24*
X2999Y392D03*
X3066Y392D03*
X2999Y492D03*
X3066Y492D03*
X2999Y592D03*
X3066Y592D03*
X2999Y692D03*
X3066Y692D03*
X2999Y792D03*
X3066Y792D03*
X2999Y892D03*
X3066Y892D03*
X2999Y992D03*
X3066Y992D03*
G54D20*
X249Y1750D03*
X249Y1817D03*
G54D24*
X2999Y1092D03*
X3066Y1092D03*
X2874Y392D03*
X2941Y392D03*
X2874Y492D03*
X2941Y492D03*
X2874Y592D03*
X2941Y592D03*
X2874Y692D03*
X2941Y692D03*
X2874Y792D03*
X2941Y792D03*
X2874Y892D03*
X2941Y892D03*
X2874Y992D03*
X2941Y992D03*
G54D20*
X249Y1875D03*
X249Y1942D03*
G54D24*
X2874Y1092D03*
X2941Y1092D03*
G54D25*
X1213Y917D03*
X1213Y867D03*
X1213Y817D03*
X1213Y767D03*
X1213Y717D03*
X1213Y667D03*
X1213Y617D03*
X1213Y567D03*
X1599Y567D03*
X1599Y617D03*
X1599Y667D03*
X1599Y717D03*
X1599Y767D03*
X1599Y817D03*
X1599Y867D03*
X1599Y917D03*
X1213Y517D03*
X1599Y517D03*
G54D26*
X314Y2117D03*
X649Y2117D03*
G54D27*
X247Y1490D03*
G54D28*
X346Y1217D03*
X149Y1217D03*
G54D22*
X1099Y2192D03*
X1032Y2192D03*
X1099Y2117D03*
X1032Y2117D03*
G54D29*
X1724Y1541D02*
X1724Y1343D01*
D02*
X1724Y1343D02*
X1624Y1343D01*
D02*
X1974Y1541D02*
X1974Y1291D01*
D02*
X1974Y1291D02*
X1673Y1291D01*
D02*
X2223Y1541D02*
X2223Y1242D01*
D02*
X2223Y1242D02*
X1724Y1242D01*
D02*
X2475Y1541D02*
X2473Y1191D01*
D02*
X2473Y1191D02*
X1773Y1191D01*
D02*
X1623Y918D02*
X1599Y917D01*
D02*
X1773Y1191D02*
X1774Y767D01*
D02*
X1724Y1242D02*
X1723Y816D01*
D02*
X1673Y1291D02*
X1673Y866D01*
D02*
X1624Y1343D02*
X1623Y918D01*
D02*
X1673Y866D02*
X1633Y867D01*
D02*
X1723Y816D02*
X1633Y817D01*
D02*
X1774Y767D02*
X1633Y767D01*
D02*
X2577Y1645D02*
X2475Y1541D01*
D02*
X2326Y1645D02*
X2223Y1541D01*
D02*
X2076Y1645D02*
X1974Y1541D01*
D02*
X1826Y1645D02*
X1724Y1541D01*
D02*
X2274Y616D02*
X1633Y617D01*
D02*
X2498Y567D02*
X1633Y567D01*
D02*
X2579Y668D02*
X2498Y567D01*
D02*
X2327Y670D02*
X2274Y616D01*
D02*
X1798Y716D02*
X1633Y717D01*
D02*
X1820Y706D02*
X1798Y716D01*
G54D30*
D02*
X2675Y1191D02*
X2674Y941D01*
D02*
X2773Y1042D02*
X2823Y992D01*
D02*
X2724Y1692D02*
X2675Y1741D01*
D02*
X2723Y992D02*
X2724Y1692D01*
D02*
X2674Y941D02*
X2823Y793D01*
D02*
X2473Y1191D02*
X2675Y1191D01*
D02*
X2823Y992D02*
X2856Y992D01*
D02*
X2823Y891D02*
X2723Y992D01*
D02*
X2823Y793D02*
X2856Y792D01*
D02*
X2675Y1741D02*
X2423Y1741D01*
D02*
X2423Y1741D02*
X2367Y1686D01*
D02*
X2724Y1792D02*
X2774Y1741D01*
D02*
X2774Y1741D02*
X2773Y1042D01*
D02*
X2224Y1791D02*
X2724Y1792D01*
D02*
X2117Y1686D02*
X2224Y1791D01*
D02*
X2856Y892D02*
X2823Y891D01*
D02*
X1973Y1892D02*
X1974Y1791D01*
D02*
X2773Y691D02*
X2649Y817D01*
D02*
X2824Y1092D02*
X2823Y1891D01*
D02*
X2823Y691D02*
X2773Y691D01*
D02*
X2649Y567D02*
X2649Y642D01*
D02*
X2649Y642D02*
X2617Y674D01*
D02*
X2823Y392D02*
X2649Y567D01*
D02*
X2856Y392D02*
X2823Y392D01*
D02*
X2649Y817D02*
X1973Y817D01*
D02*
X1973Y817D02*
X1867Y711D01*
D02*
X2856Y691D02*
X2823Y691D01*
G54D29*
D02*
X3066Y1008D02*
X3066Y1076D01*
D02*
X3066Y908D02*
X3066Y976D01*
D02*
X3066Y808D02*
X3066Y876D01*
D02*
X3066Y708D02*
X3066Y776D01*
D02*
X3066Y608D02*
X3066Y676D01*
D02*
X3066Y508D02*
X3066Y576D01*
D02*
X3066Y476D02*
X3066Y408D01*
G54D30*
D02*
X2823Y1891D02*
X2774Y1941D01*
D02*
X2774Y1941D02*
X2024Y1942D01*
D02*
X2024Y1942D02*
X1973Y1892D01*
D02*
X1974Y1791D02*
X1867Y1686D01*
D02*
X2856Y1092D02*
X2824Y1092D01*
D02*
X2824Y591D02*
X2783Y632D01*
G54D29*
D02*
X3041Y317D02*
X3060Y376D01*
G54D30*
D02*
X2724Y591D02*
X2724Y667D01*
D02*
X2724Y667D02*
X2624Y766D01*
D02*
X2624Y766D02*
X2424Y767D01*
G54D29*
D02*
X2799Y317D02*
X3041Y317D01*
D02*
X2723Y392D02*
X2799Y317D01*
D02*
X1674Y391D02*
X2723Y392D01*
D02*
X1650Y418D02*
X1674Y391D01*
G54D30*
D02*
X2823Y492D02*
X2724Y591D01*
D02*
X2424Y767D02*
X2367Y711D01*
D02*
X2856Y592D02*
X2824Y591D01*
D02*
X2856Y492D02*
X2823Y492D01*
D02*
X2798Y2092D02*
X2749Y2041D01*
D02*
X3074Y2092D02*
X2798Y2092D01*
D02*
X3123Y2042D02*
X3074Y2092D01*
D02*
X3124Y1767D02*
X3123Y2042D01*
D02*
X2749Y2041D02*
X2624Y2041D01*
D02*
X2624Y2041D02*
X2616Y2050D01*
D02*
X3016Y1659D02*
X3124Y1767D01*
D02*
X3074Y1916D02*
X3016Y1859D01*
D02*
X3074Y2017D02*
X3074Y1916D01*
D02*
X3050Y2042D02*
X3074Y2017D01*
D02*
X2848Y2042D02*
X3050Y2042D01*
D02*
X2799Y1992D02*
X2848Y2042D01*
D02*
X2173Y1992D02*
X2799Y1992D01*
D02*
X2116Y2050D02*
X2173Y1992D01*
D02*
X3124Y1417D02*
X3016Y1524D01*
D02*
X3124Y330D02*
X3124Y1417D01*
G54D29*
D02*
X1399Y1798D02*
X1399Y1617D01*
D02*
X1324Y1798D02*
X1324Y1566D01*
D02*
X1399Y1617D02*
X1479Y1540D01*
D02*
X1324Y1566D02*
X1478Y1439D01*
G54D30*
D02*
X1149Y917D02*
X1178Y917D01*
D02*
X1150Y1104D02*
X1149Y917D01*
D02*
X348Y1866D02*
X348Y1716D01*
D02*
X348Y1716D02*
X432Y1633D01*
D02*
X300Y1916D02*
X348Y1866D01*
D02*
X265Y1934D02*
X300Y1916D01*
D02*
X248Y1606D02*
X249Y1732D01*
G54D29*
D02*
X249Y1835D02*
X249Y1857D01*
D02*
X1672Y665D02*
X1633Y666D01*
D02*
X1199Y367D02*
X1220Y341D01*
D02*
X1199Y517D02*
X1199Y367D01*
D02*
X1213Y517D02*
X1199Y517D01*
D02*
X1047Y1455D02*
X1047Y1438D01*
G54D30*
D02*
X1163Y867D02*
X1178Y867D01*
G54D29*
D02*
X1648Y517D02*
X1633Y517D01*
D02*
X1650Y418D02*
X1648Y517D01*
D02*
X1318Y418D02*
X1650Y418D01*
G54D31*
D02*
X650Y1217D02*
X725Y1293D01*
D02*
X527Y1216D02*
X483Y1217D01*
D02*
X576Y1216D02*
X650Y1217D01*
G54D29*
D02*
X1149Y1966D02*
X998Y1966D01*
D02*
X998Y1716D02*
X1033Y1717D01*
D02*
X1178Y1940D02*
X1149Y1966D01*
D02*
X998Y1966D02*
X998Y1716D01*
G54D31*
D02*
X249Y717D02*
X333Y717D01*
D02*
X249Y717D02*
X249Y317D01*
D02*
X249Y317D02*
X244Y313D01*
D02*
X247Y1364D02*
X249Y717D01*
G54D29*
D02*
X1132Y1718D02*
X1171Y1720D01*
D02*
X349Y832D02*
X349Y802D01*
D02*
X348Y996D02*
X349Y935D01*
G54D31*
D02*
X1123Y2017D02*
X1640Y2021D01*
G54D29*
D02*
X649Y1618D02*
X649Y2083D01*
D02*
X548Y1618D02*
X548Y2018D01*
D02*
X548Y2018D02*
X314Y2018D01*
D02*
X314Y2018D02*
X314Y2083D01*
D02*
X729Y1437D02*
X548Y1618D01*
D02*
X729Y1537D02*
X649Y1618D01*
G54D30*
D02*
X851Y1935D02*
X851Y2056D01*
D02*
X1049Y767D02*
X1049Y1017D01*
D02*
X898Y1567D02*
X765Y1700D01*
D02*
X898Y1166D02*
X898Y1567D01*
D02*
X1049Y1017D02*
X898Y1166D01*
G54D29*
D02*
X1171Y1522D02*
X1046Y1524D01*
D02*
X1046Y1524D02*
X1047Y1609D01*
G54D30*
D02*
X1178Y767D02*
X1049Y767D01*
D02*
X1098Y817D02*
X1098Y1067D01*
D02*
X1178Y817D02*
X1098Y817D01*
D02*
X949Y1617D02*
X765Y1801D01*
D02*
X949Y1218D02*
X949Y1617D01*
D02*
X1098Y1067D02*
X949Y1218D01*
G54D29*
D02*
X1171Y1622D02*
X1130Y1623D01*
G54D30*
D02*
X848Y1517D02*
X848Y1117D01*
D02*
X848Y1117D02*
X999Y966D01*
D02*
X999Y716D02*
X1178Y717D01*
G54D29*
D02*
X1171Y1422D02*
X1130Y1423D01*
G54D30*
D02*
X765Y1601D02*
X848Y1517D01*
D02*
X999Y966D02*
X999Y716D01*
G54D31*
D02*
X549Y517D02*
X248Y307D01*
G54D29*
D02*
X1178Y517D02*
X549Y517D01*
G54D30*
D02*
X765Y900D02*
X848Y817D01*
D02*
X848Y817D02*
X848Y567D01*
D02*
X848Y567D02*
X1178Y567D01*
G54D29*
D02*
X1526Y1921D02*
X1582Y1921D01*
D02*
X1526Y1821D02*
X1665Y1821D01*
D02*
X1665Y1821D02*
X1665Y1907D01*
D02*
X1097Y1838D02*
X1098Y1861D01*
G54D31*
D02*
X1664Y1996D02*
X1665Y1936D01*
G54D30*
D02*
X765Y1101D02*
X949Y916D01*
D02*
X899Y867D02*
X765Y1000D01*
D02*
X889Y1777D02*
X765Y1900D01*
D02*
X898Y617D02*
X899Y867D01*
D02*
X1178Y617D02*
X898Y617D01*
D02*
X949Y916D02*
X949Y666D01*
D02*
X949Y666D02*
X1178Y667D01*
G54D29*
D02*
X1180Y1823D02*
X1171Y1823D01*
D02*
X2959Y492D02*
X2981Y492D01*
D02*
X2959Y592D02*
X2981Y592D01*
D02*
X2959Y392D02*
X2981Y392D01*
D02*
X2959Y1092D02*
X2981Y1092D01*
D02*
X2959Y992D02*
X2981Y992D01*
D02*
X2981Y892D02*
X2959Y892D01*
D02*
X2959Y792D02*
X2981Y792D01*
D02*
X2959Y692D02*
X2981Y692D01*
G54D31*
D02*
X346Y1169D02*
X347Y1040D01*
G54D32*
D02*
X288Y171D02*
X246Y210D01*
G54D31*
D02*
X549Y517D02*
X551Y1191D01*
G54D29*
D02*
X1099Y2131D02*
X1099Y2178D01*
D02*
X1099Y2103D02*
X1099Y2036D01*
D02*
X374Y2191D02*
X1016Y2192D01*
D02*
X341Y2151D02*
X374Y2191D01*
D02*
X732Y2117D02*
X1016Y2117D01*
G54D31*
D02*
X149Y847D02*
X149Y1169D01*
G54D33*
X1169Y1948D02*
X1227Y1948D01*
X1469Y1948D02*
X1527Y1948D01*
X1164Y1947D02*
X1231Y1947D01*
X1464Y1947D02*
X1531Y1947D01*
X1162Y1946D02*
X1234Y1946D01*
X1462Y1946D02*
X1534Y1946D01*
X1160Y1945D02*
X1236Y1945D01*
X1460Y1945D02*
X1536Y1945D01*
X1158Y1944D02*
X1238Y1944D01*
X1458Y1944D02*
X1538Y1944D01*
X1157Y1943D02*
X1239Y1943D01*
X1457Y1943D02*
X1539Y1943D01*
X1156Y1942D02*
X1240Y1942D01*
X1456Y1942D02*
X1540Y1942D01*
X1154Y1941D02*
X1241Y1941D01*
X1454Y1941D02*
X1541Y1941D01*
X1153Y1940D02*
X1242Y1940D01*
X1453Y1940D02*
X1542Y1940D01*
X1153Y1939D02*
X1243Y1939D01*
X1453Y1939D02*
X1543Y1939D01*
X1152Y1938D02*
X1195Y1938D01*
X1201Y1938D02*
X1244Y1938D01*
X1452Y1938D02*
X1495Y1938D01*
X1501Y1938D02*
X1544Y1938D01*
X1151Y1937D02*
X1191Y1937D01*
X1205Y1937D02*
X1245Y1937D01*
X1451Y1937D02*
X1491Y1937D01*
X1504Y1937D02*
X1545Y1937D01*
X1150Y1936D02*
X1189Y1936D01*
X1206Y1936D02*
X1245Y1936D01*
X1450Y1936D02*
X1489Y1936D01*
X1506Y1936D02*
X1545Y1936D01*
X1150Y1935D02*
X1188Y1935D01*
X1208Y1935D02*
X1246Y1935D01*
X1450Y1935D02*
X1488Y1935D01*
X1508Y1935D02*
X1546Y1935D01*
X1149Y1934D02*
X1187Y1934D01*
X1209Y1934D02*
X1246Y1934D01*
X1449Y1934D02*
X1486Y1934D01*
X1509Y1934D02*
X1546Y1934D01*
X1149Y1933D02*
X1186Y1933D01*
X1210Y1933D02*
X1247Y1933D01*
X1449Y1933D02*
X1486Y1933D01*
X1510Y1933D02*
X1547Y1933D01*
X1148Y1932D02*
X1185Y1932D01*
X1211Y1932D02*
X1247Y1932D01*
X1448Y1932D02*
X1485Y1932D01*
X1511Y1932D02*
X1547Y1932D01*
X1148Y1931D02*
X1184Y1931D01*
X1212Y1931D02*
X1248Y1931D01*
X1448Y1931D02*
X1484Y1931D01*
X1512Y1931D02*
X1548Y1931D01*
X1148Y1930D02*
X1183Y1930D01*
X1212Y1930D02*
X1248Y1930D01*
X1447Y1930D02*
X1483Y1930D01*
X1512Y1930D02*
X1548Y1930D01*
X1147Y1929D02*
X1183Y1929D01*
X1213Y1929D02*
X1248Y1929D01*
X1447Y1929D02*
X1483Y1929D01*
X1513Y1929D02*
X1548Y1929D01*
X1147Y1928D02*
X1182Y1928D01*
X1213Y1928D02*
X1249Y1928D01*
X1447Y1928D02*
X1482Y1928D01*
X1513Y1928D02*
X1549Y1928D01*
X1147Y1927D02*
X1182Y1927D01*
X1214Y1927D02*
X1249Y1927D01*
X1447Y1927D02*
X1482Y1927D01*
X1513Y1927D02*
X1549Y1927D01*
X1147Y1926D02*
X1182Y1926D01*
X1214Y1926D02*
X1249Y1926D01*
X1447Y1926D02*
X1482Y1926D01*
X1514Y1926D02*
X1549Y1926D01*
X1146Y1925D02*
X1182Y1925D01*
X1214Y1925D02*
X1249Y1925D01*
X1446Y1925D02*
X1482Y1925D01*
X1514Y1925D02*
X1549Y1925D01*
X1146Y1924D02*
X1182Y1924D01*
X1214Y1924D02*
X1249Y1924D01*
X1446Y1924D02*
X1481Y1924D01*
X1514Y1924D02*
X1549Y1924D01*
X1146Y1923D02*
X1181Y1923D01*
X1214Y1923D02*
X1249Y1923D01*
X1446Y1923D02*
X1481Y1923D01*
X1514Y1923D02*
X1549Y1923D01*
X1146Y1922D02*
X1181Y1922D01*
X1214Y1922D02*
X1249Y1922D01*
X1446Y1922D02*
X1481Y1922D01*
X1514Y1922D02*
X1549Y1922D01*
X1146Y1921D02*
X1181Y1921D01*
X1214Y1921D02*
X1249Y1921D01*
X1446Y1921D02*
X1481Y1921D01*
X1514Y1921D02*
X1549Y1921D01*
X1146Y1920D02*
X1182Y1920D01*
X1214Y1920D02*
X1249Y1920D01*
X1446Y1920D02*
X1482Y1920D01*
X1514Y1920D02*
X1549Y1920D01*
X1147Y1919D02*
X1182Y1919D01*
X1214Y1919D02*
X1249Y1919D01*
X1447Y1919D02*
X1482Y1919D01*
X1514Y1919D02*
X1549Y1919D01*
X1147Y1918D02*
X1182Y1918D01*
X1214Y1918D02*
X1249Y1918D01*
X1447Y1918D02*
X1482Y1918D01*
X1514Y1918D02*
X1549Y1918D01*
X1147Y1917D02*
X1182Y1917D01*
X1213Y1917D02*
X1249Y1917D01*
X1447Y1917D02*
X1482Y1917D01*
X1513Y1917D02*
X1549Y1917D01*
X1147Y1916D02*
X1183Y1916D01*
X1213Y1916D02*
X1249Y1916D01*
X1447Y1916D02*
X1483Y1916D01*
X1513Y1916D02*
X1548Y1916D01*
X1147Y1915D02*
X1183Y1915D01*
X1213Y1915D02*
X1248Y1915D01*
X1447Y1915D02*
X1483Y1915D01*
X1512Y1915D02*
X1548Y1915D01*
X1148Y1914D02*
X1184Y1914D01*
X1212Y1914D02*
X1248Y1914D01*
X1448Y1914D02*
X1484Y1914D01*
X1512Y1914D02*
X1548Y1914D01*
X1148Y1913D02*
X1184Y1913D01*
X1211Y1913D02*
X1248Y1913D01*
X1448Y1913D02*
X1484Y1913D01*
X1511Y1913D02*
X1548Y1913D01*
X1148Y1912D02*
X1185Y1912D01*
X1210Y1912D02*
X1247Y1912D01*
X1448Y1912D02*
X1485Y1912D01*
X1510Y1912D02*
X1547Y1912D01*
X1149Y1911D02*
X1186Y1911D01*
X1210Y1911D02*
X1247Y1911D01*
X1449Y1911D02*
X1486Y1911D01*
X1510Y1911D02*
X1547Y1911D01*
X1150Y1910D02*
X1187Y1910D01*
X1208Y1910D02*
X1246Y1910D01*
X1450Y1910D02*
X1487Y1910D01*
X1508Y1910D02*
X1546Y1910D01*
X1150Y1909D02*
X1188Y1909D01*
X1207Y1909D02*
X1246Y1909D01*
X1450Y1909D02*
X1488Y1909D01*
X1507Y1909D02*
X1546Y1909D01*
X1151Y1908D02*
X1190Y1908D01*
X1205Y1908D02*
X1245Y1908D01*
X1451Y1908D02*
X1490Y1908D01*
X1505Y1908D02*
X1545Y1908D01*
X1151Y1907D02*
X1193Y1907D01*
X1203Y1907D02*
X1244Y1907D01*
X1451Y1907D02*
X1493Y1907D01*
X1503Y1907D02*
X1544Y1907D01*
X1152Y1906D02*
X1243Y1906D01*
X1452Y1906D02*
X1543Y1906D01*
X1153Y1905D02*
X1243Y1905D01*
X1453Y1905D02*
X1543Y1905D01*
X1154Y1904D02*
X1242Y1904D01*
X1454Y1904D02*
X1542Y1904D01*
X1155Y1903D02*
X1241Y1903D01*
X1455Y1903D02*
X1541Y1903D01*
X1156Y1902D02*
X1239Y1902D01*
X1456Y1902D02*
X1539Y1902D01*
X1157Y1901D02*
X1238Y1901D01*
X1457Y1901D02*
X1538Y1901D01*
X1159Y1900D02*
X1237Y1900D01*
X1459Y1900D02*
X1536Y1900D01*
X1161Y1899D02*
X1235Y1899D01*
X1461Y1899D02*
X1535Y1899D01*
X1163Y1898D02*
X1233Y1898D01*
X1463Y1898D02*
X1533Y1898D01*
X1166Y1897D02*
X1229Y1897D01*
X1466Y1897D02*
X1529Y1897D01*
X1169Y1848D02*
X1227Y1848D01*
X1468Y1848D02*
X1527Y1848D01*
X1164Y1847D02*
X1231Y1847D01*
X1464Y1847D02*
X1531Y1847D01*
X1162Y1846D02*
X1234Y1846D01*
X1462Y1846D02*
X1534Y1846D01*
X1160Y1845D02*
X1236Y1845D01*
X1460Y1845D02*
X1536Y1845D01*
X1158Y1844D02*
X1238Y1844D01*
X1458Y1844D02*
X1538Y1844D01*
X1157Y1843D02*
X1239Y1843D01*
X1457Y1843D02*
X1539Y1843D01*
X1156Y1842D02*
X1240Y1842D01*
X1456Y1842D02*
X1540Y1842D01*
X1154Y1841D02*
X1241Y1841D01*
X1454Y1841D02*
X1541Y1841D01*
X1153Y1840D02*
X1242Y1840D01*
X1453Y1840D02*
X1542Y1840D01*
X1153Y1839D02*
X1243Y1839D01*
X1453Y1839D02*
X1543Y1839D01*
X1152Y1838D02*
X1194Y1838D01*
X1201Y1838D02*
X1244Y1838D01*
X1452Y1838D02*
X1494Y1838D01*
X1501Y1838D02*
X1544Y1838D01*
X1151Y1837D02*
X1191Y1837D01*
X1205Y1837D02*
X1245Y1837D01*
X1451Y1837D02*
X1491Y1837D01*
X1505Y1837D02*
X1545Y1837D01*
X1150Y1836D02*
X1189Y1836D01*
X1206Y1836D02*
X1245Y1836D01*
X1450Y1836D02*
X1489Y1836D01*
X1506Y1836D02*
X1545Y1836D01*
X1150Y1835D02*
X1188Y1835D01*
X1208Y1835D02*
X1246Y1835D01*
X1450Y1835D02*
X1488Y1835D01*
X1508Y1835D02*
X1546Y1835D01*
X1149Y1834D02*
X1186Y1834D01*
X1209Y1834D02*
X1246Y1834D01*
X1449Y1834D02*
X1486Y1834D01*
X1509Y1834D02*
X1546Y1834D01*
X1149Y1833D02*
X1186Y1833D01*
X1210Y1833D02*
X1247Y1833D01*
X1449Y1833D02*
X1485Y1833D01*
X1510Y1833D02*
X1547Y1833D01*
X1148Y1832D02*
X1185Y1832D01*
X1211Y1832D02*
X1247Y1832D01*
X1448Y1832D02*
X1485Y1832D01*
X1511Y1832D02*
X1547Y1832D01*
X1148Y1831D02*
X1184Y1831D01*
X1212Y1831D02*
X1248Y1831D01*
X1448Y1831D02*
X1484Y1831D01*
X1512Y1831D02*
X1548Y1831D01*
X1147Y1830D02*
X1183Y1830D01*
X1212Y1830D02*
X1248Y1830D01*
X1447Y1830D02*
X1483Y1830D01*
X1512Y1830D02*
X1548Y1830D01*
X1147Y1829D02*
X1183Y1829D01*
X1213Y1829D02*
X1248Y1829D01*
X1447Y1829D02*
X1483Y1829D01*
X1513Y1829D02*
X1548Y1829D01*
X1147Y1828D02*
X1182Y1828D01*
X1213Y1828D02*
X1249Y1828D01*
X1447Y1828D02*
X1482Y1828D01*
X1513Y1828D02*
X1549Y1828D01*
X1147Y1827D02*
X1182Y1827D01*
X1214Y1827D02*
X1249Y1827D01*
X1447Y1827D02*
X1482Y1827D01*
X1514Y1827D02*
X1549Y1827D01*
X1147Y1826D02*
X1182Y1826D01*
X1214Y1826D02*
X1249Y1826D01*
X1447Y1826D02*
X1482Y1826D01*
X1514Y1826D02*
X1549Y1826D01*
X1146Y1825D02*
X1182Y1825D01*
X1214Y1825D02*
X1249Y1825D01*
X1446Y1825D02*
X1482Y1825D01*
X1514Y1825D02*
X1549Y1825D01*
X1146Y1824D02*
X1182Y1824D01*
X1214Y1824D02*
X1249Y1824D01*
X1446Y1824D02*
X1481Y1824D01*
X1514Y1824D02*
X1549Y1824D01*
X1146Y1823D02*
X1181Y1823D01*
X1214Y1823D02*
X1249Y1823D01*
X1446Y1823D02*
X1481Y1823D01*
X1514Y1823D02*
X1549Y1823D01*
X1146Y1822D02*
X1181Y1822D01*
X1214Y1822D02*
X1249Y1822D01*
X1446Y1822D02*
X1481Y1822D01*
X1514Y1822D02*
X1549Y1822D01*
X1146Y1821D02*
X1181Y1821D01*
X1214Y1821D02*
X1249Y1821D01*
X1446Y1821D02*
X1481Y1821D01*
X1514Y1821D02*
X1549Y1821D01*
X1146Y1820D02*
X1182Y1820D01*
X1214Y1820D02*
X1249Y1820D01*
X1446Y1820D02*
X1482Y1820D01*
X1514Y1820D02*
X1549Y1820D01*
X1147Y1819D02*
X1182Y1819D01*
X1214Y1819D02*
X1249Y1819D01*
X1447Y1819D02*
X1482Y1819D01*
X1514Y1819D02*
X1549Y1819D01*
X1147Y1818D02*
X1182Y1818D01*
X1214Y1818D02*
X1249Y1818D01*
X1447Y1818D02*
X1482Y1818D01*
X1514Y1818D02*
X1549Y1818D01*
X1147Y1817D02*
X1182Y1817D01*
X1213Y1817D02*
X1249Y1817D01*
X1447Y1817D02*
X1482Y1817D01*
X1513Y1817D02*
X1549Y1817D01*
X1147Y1816D02*
X1183Y1816D01*
X1213Y1816D02*
X1249Y1816D01*
X1447Y1816D02*
X1483Y1816D01*
X1513Y1816D02*
X1548Y1816D01*
X1147Y1815D02*
X1183Y1815D01*
X1212Y1815D02*
X1248Y1815D01*
X1447Y1815D02*
X1483Y1815D01*
X1512Y1815D02*
X1548Y1815D01*
X1148Y1814D02*
X1184Y1814D01*
X1212Y1814D02*
X1248Y1814D01*
X1448Y1814D02*
X1484Y1814D01*
X1512Y1814D02*
X1548Y1814D01*
X1148Y1813D02*
X1184Y1813D01*
X1211Y1813D02*
X1248Y1813D01*
X1448Y1813D02*
X1484Y1813D01*
X1511Y1813D02*
X1548Y1813D01*
X1148Y1812D02*
X1185Y1812D01*
X1210Y1812D02*
X1247Y1812D01*
X1448Y1812D02*
X1485Y1812D01*
X1510Y1812D02*
X1547Y1812D01*
X1149Y1811D02*
X1186Y1811D01*
X1210Y1811D02*
X1247Y1811D01*
X1449Y1811D02*
X1486Y1811D01*
X1510Y1811D02*
X1547Y1811D01*
X1150Y1810D02*
X1187Y1810D01*
X1208Y1810D02*
X1246Y1810D01*
X1450Y1810D02*
X1487Y1810D01*
X1508Y1810D02*
X1546Y1810D01*
X1150Y1809D02*
X1189Y1809D01*
X1207Y1809D02*
X1246Y1809D01*
X1450Y1809D02*
X1488Y1809D01*
X1507Y1809D02*
X1546Y1809D01*
X1151Y1808D02*
X1190Y1808D01*
X1205Y1808D02*
X1245Y1808D01*
X1451Y1808D02*
X1490Y1808D01*
X1505Y1808D02*
X1545Y1808D01*
X1151Y1807D02*
X1193Y1807D01*
X1203Y1807D02*
X1244Y1807D01*
X1451Y1807D02*
X1493Y1807D01*
X1503Y1807D02*
X1544Y1807D01*
X1152Y1806D02*
X1243Y1806D01*
X1452Y1806D02*
X1543Y1806D01*
X1153Y1805D02*
X1243Y1805D01*
X1453Y1805D02*
X1543Y1805D01*
X1154Y1804D02*
X1242Y1804D01*
X1454Y1804D02*
X1542Y1804D01*
X1155Y1803D02*
X1241Y1803D01*
X1455Y1803D02*
X1541Y1803D01*
X1156Y1802D02*
X1239Y1802D01*
X1456Y1802D02*
X1539Y1802D01*
X1158Y1801D02*
X1238Y1801D01*
X1457Y1801D02*
X1538Y1801D01*
X1159Y1800D02*
X1236Y1800D01*
X1459Y1800D02*
X1536Y1800D01*
X1161Y1799D02*
X1235Y1799D01*
X1461Y1799D02*
X1535Y1799D01*
X1163Y1798D02*
X1232Y1798D01*
X1463Y1798D02*
X1532Y1798D01*
X1166Y1797D02*
X1229Y1797D01*
X1466Y1797D02*
X1529Y1797D01*
X1168Y1748D02*
X1227Y1748D01*
X1468Y1748D02*
X1527Y1748D01*
X1164Y1747D02*
X1232Y1747D01*
X1464Y1747D02*
X1532Y1747D01*
X1162Y1746D02*
X1234Y1746D01*
X1462Y1746D02*
X1534Y1746D01*
X1160Y1745D02*
X1236Y1745D01*
X1460Y1745D02*
X1536Y1745D01*
X1158Y1744D02*
X1238Y1744D01*
X1458Y1744D02*
X1538Y1744D01*
X1157Y1743D02*
X1239Y1743D01*
X1457Y1743D02*
X1539Y1743D01*
X1155Y1742D02*
X1240Y1742D01*
X1455Y1742D02*
X1540Y1742D01*
X1154Y1741D02*
X1241Y1741D01*
X1454Y1741D02*
X1541Y1741D01*
X1153Y1740D02*
X1242Y1740D01*
X1453Y1740D02*
X1542Y1740D01*
X1153Y1739D02*
X1243Y1739D01*
X1452Y1739D02*
X1543Y1739D01*
X1152Y1738D02*
X1194Y1738D01*
X1201Y1738D02*
X1244Y1738D01*
X1452Y1738D02*
X1494Y1738D01*
X1501Y1738D02*
X1544Y1738D01*
X1151Y1737D02*
X1191Y1737D01*
X1205Y1737D02*
X1245Y1737D01*
X1451Y1737D02*
X1491Y1737D01*
X1505Y1737D02*
X1545Y1737D01*
X1150Y1736D02*
X1189Y1736D01*
X1207Y1736D02*
X1245Y1736D01*
X1450Y1736D02*
X1489Y1736D01*
X1507Y1736D02*
X1545Y1736D01*
X1150Y1735D02*
X1188Y1735D01*
X1208Y1735D02*
X1246Y1735D01*
X1450Y1735D02*
X1488Y1735D01*
X1508Y1735D02*
X1546Y1735D01*
X1149Y1734D02*
X1186Y1734D01*
X1209Y1734D02*
X1246Y1734D01*
X1449Y1734D02*
X1486Y1734D01*
X1509Y1734D02*
X1546Y1734D01*
X1149Y1733D02*
X1185Y1733D01*
X1210Y1733D02*
X1247Y1733D01*
X1449Y1733D02*
X1485Y1733D01*
X1510Y1733D02*
X1547Y1733D01*
X1148Y1732D02*
X1185Y1732D01*
X1211Y1732D02*
X1247Y1732D01*
X1448Y1732D02*
X1485Y1732D01*
X1511Y1732D02*
X1547Y1732D01*
X1148Y1731D02*
X1184Y1731D01*
X1212Y1731D02*
X1248Y1731D01*
X1448Y1731D02*
X1484Y1731D01*
X1512Y1731D02*
X1548Y1731D01*
X1147Y1730D02*
X1183Y1730D01*
X1212Y1730D02*
X1248Y1730D01*
X1447Y1730D02*
X1483Y1730D01*
X1512Y1730D02*
X1548Y1730D01*
X1147Y1729D02*
X1183Y1729D01*
X1213Y1729D02*
X1248Y1729D01*
X1447Y1729D02*
X1483Y1729D01*
X1513Y1729D02*
X1548Y1729D01*
X1147Y1728D02*
X1182Y1728D01*
X1213Y1728D02*
X1249Y1728D01*
X1447Y1728D02*
X1482Y1728D01*
X1513Y1728D02*
X1549Y1728D01*
X1147Y1727D02*
X1182Y1727D01*
X1214Y1727D02*
X1249Y1727D01*
X1447Y1727D02*
X1482Y1727D01*
X1514Y1727D02*
X1549Y1727D01*
X1147Y1726D02*
X1182Y1726D01*
X1214Y1726D02*
X1249Y1726D01*
X1447Y1726D02*
X1482Y1726D01*
X1514Y1726D02*
X1549Y1726D01*
X1146Y1725D02*
X1182Y1725D01*
X1214Y1725D02*
X1249Y1725D01*
X1446Y1725D02*
X1482Y1725D01*
X1514Y1725D02*
X1549Y1725D01*
X1146Y1724D02*
X1181Y1724D01*
X1214Y1724D02*
X1249Y1724D01*
X1446Y1724D02*
X1481Y1724D01*
X1514Y1724D02*
X1549Y1724D01*
X1146Y1723D02*
X1181Y1723D01*
X1214Y1723D02*
X1249Y1723D01*
X1446Y1723D02*
X1481Y1723D01*
X1514Y1723D02*
X1549Y1723D01*
X1146Y1722D02*
X1181Y1722D01*
X1214Y1722D02*
X1249Y1722D01*
X1446Y1722D02*
X1481Y1722D01*
X1514Y1722D02*
X1549Y1722D01*
X1146Y1721D02*
X1181Y1721D01*
X1214Y1721D02*
X1249Y1721D01*
X1446Y1721D02*
X1481Y1721D01*
X1514Y1721D02*
X1549Y1721D01*
X1146Y1720D02*
X1182Y1720D01*
X1214Y1720D02*
X1249Y1720D01*
X1446Y1720D02*
X1482Y1720D01*
X1514Y1720D02*
X1549Y1720D01*
X1147Y1719D02*
X1182Y1719D01*
X1214Y1719D02*
X1249Y1719D01*
X1447Y1719D02*
X1482Y1719D01*
X1514Y1719D02*
X1549Y1719D01*
X1147Y1718D02*
X1182Y1718D01*
X1214Y1718D02*
X1249Y1718D01*
X1447Y1718D02*
X1482Y1718D01*
X1514Y1718D02*
X1549Y1718D01*
X1147Y1717D02*
X1182Y1717D01*
X1213Y1717D02*
X1249Y1717D01*
X1447Y1717D02*
X1482Y1717D01*
X1513Y1717D02*
X1549Y1717D01*
X1147Y1716D02*
X1183Y1716D01*
X1213Y1716D02*
X1249Y1716D01*
X1447Y1716D02*
X1483Y1716D01*
X1513Y1716D02*
X1548Y1716D01*
X1147Y1715D02*
X1183Y1715D01*
X1212Y1715D02*
X1248Y1715D01*
X1447Y1715D02*
X1483Y1715D01*
X1512Y1715D02*
X1548Y1715D01*
X1148Y1714D02*
X1184Y1714D01*
X1212Y1714D02*
X1248Y1714D01*
X1448Y1714D02*
X1484Y1714D01*
X1512Y1714D02*
X1548Y1714D01*
X1148Y1713D02*
X1184Y1713D01*
X1211Y1713D02*
X1248Y1713D01*
X1448Y1713D02*
X1484Y1713D01*
X1511Y1713D02*
X1548Y1713D01*
X1149Y1712D02*
X1185Y1712D01*
X1210Y1712D02*
X1247Y1712D01*
X1448Y1712D02*
X1485Y1712D01*
X1510Y1712D02*
X1547Y1712D01*
X1149Y1711D02*
X1186Y1711D01*
X1210Y1711D02*
X1247Y1711D01*
X1449Y1711D02*
X1486Y1711D01*
X1510Y1711D02*
X1547Y1711D01*
X1150Y1710D02*
X1187Y1710D01*
X1208Y1710D02*
X1246Y1710D01*
X1450Y1710D02*
X1487Y1710D01*
X1508Y1710D02*
X1546Y1710D01*
X1150Y1709D02*
X1189Y1709D01*
X1207Y1709D02*
X1246Y1709D01*
X1450Y1709D02*
X1489Y1709D01*
X1507Y1709D02*
X1546Y1709D01*
X1151Y1708D02*
X1190Y1708D01*
X1205Y1708D02*
X1245Y1708D01*
X1451Y1708D02*
X1490Y1708D01*
X1505Y1708D02*
X1545Y1708D01*
X1151Y1707D02*
X1193Y1707D01*
X1203Y1707D02*
X1244Y1707D01*
X1451Y1707D02*
X1493Y1707D01*
X1503Y1707D02*
X1544Y1707D01*
X1152Y1706D02*
X1243Y1706D01*
X1452Y1706D02*
X1543Y1706D01*
X1153Y1705D02*
X1243Y1705D01*
X1453Y1705D02*
X1543Y1705D01*
X1154Y1704D02*
X1242Y1704D01*
X1454Y1704D02*
X1542Y1704D01*
X1155Y1703D02*
X1241Y1703D01*
X1455Y1703D02*
X1540Y1703D01*
X1156Y1702D02*
X1239Y1702D01*
X1456Y1702D02*
X1539Y1702D01*
X1158Y1701D02*
X1238Y1701D01*
X1458Y1701D02*
X1538Y1701D01*
X1159Y1700D02*
X1236Y1700D01*
X1459Y1700D02*
X1536Y1700D01*
X1161Y1699D02*
X1235Y1699D01*
X1461Y1699D02*
X1535Y1699D01*
X1163Y1698D02*
X1232Y1698D01*
X1463Y1698D02*
X1532Y1698D01*
X1167Y1697D02*
X1229Y1697D01*
X1467Y1697D02*
X1529Y1697D01*
X1168Y1648D02*
X1228Y1648D01*
X1468Y1648D02*
X1528Y1648D01*
X1164Y1647D02*
X1232Y1647D01*
X1464Y1647D02*
X1532Y1647D01*
X1162Y1646D02*
X1234Y1646D01*
X1462Y1646D02*
X1534Y1646D01*
X1160Y1645D02*
X1236Y1645D01*
X1460Y1645D02*
X1536Y1645D01*
X1158Y1644D02*
X1238Y1644D01*
X1458Y1644D02*
X1538Y1644D01*
X1157Y1643D02*
X1239Y1643D01*
X1457Y1643D02*
X1539Y1643D01*
X1155Y1642D02*
X1240Y1642D01*
X1455Y1642D02*
X1540Y1642D01*
X1154Y1641D02*
X1241Y1641D01*
X1454Y1641D02*
X1541Y1641D01*
X1153Y1640D02*
X1242Y1640D01*
X1453Y1640D02*
X1542Y1640D01*
X1152Y1639D02*
X1243Y1639D01*
X1452Y1639D02*
X1543Y1639D01*
X1152Y1638D02*
X1194Y1638D01*
X1202Y1638D02*
X1244Y1638D01*
X1452Y1638D02*
X1494Y1638D01*
X1502Y1638D02*
X1544Y1638D01*
X1151Y1637D02*
X1191Y1637D01*
X1205Y1637D02*
X1245Y1637D01*
X1451Y1637D02*
X1491Y1637D01*
X1505Y1637D02*
X1545Y1637D01*
X1150Y1636D02*
X1189Y1636D01*
X1207Y1636D02*
X1245Y1636D01*
X1450Y1636D02*
X1489Y1636D01*
X1507Y1636D02*
X1545Y1636D01*
X1150Y1635D02*
X1188Y1635D01*
X1208Y1635D02*
X1246Y1635D01*
X1450Y1635D02*
X1488Y1635D01*
X1508Y1635D02*
X1546Y1635D01*
X1149Y1634D02*
X1186Y1634D01*
X1209Y1634D02*
X1246Y1634D01*
X1449Y1634D02*
X1486Y1634D01*
X1509Y1634D02*
X1546Y1634D01*
X1149Y1633D02*
X1185Y1633D01*
X1210Y1633D02*
X1247Y1633D01*
X1449Y1633D02*
X1485Y1633D01*
X1510Y1633D02*
X1547Y1633D01*
X1148Y1632D02*
X1185Y1632D01*
X1211Y1632D02*
X1247Y1632D01*
X1448Y1632D02*
X1485Y1632D01*
X1511Y1632D02*
X1547Y1632D01*
X1148Y1631D02*
X1184Y1631D01*
X1212Y1631D02*
X1248Y1631D01*
X1448Y1631D02*
X1484Y1631D01*
X1512Y1631D02*
X1548Y1631D01*
X1147Y1630D02*
X1183Y1630D01*
X1212Y1630D02*
X1248Y1630D01*
X1447Y1630D02*
X1483Y1630D01*
X1512Y1630D02*
X1548Y1630D01*
X1147Y1629D02*
X1183Y1629D01*
X1213Y1629D02*
X1248Y1629D01*
X1447Y1629D02*
X1483Y1629D01*
X1513Y1629D02*
X1548Y1629D01*
X1147Y1628D02*
X1182Y1628D01*
X1213Y1628D02*
X1249Y1628D01*
X1447Y1628D02*
X1482Y1628D01*
X1513Y1628D02*
X1549Y1628D01*
X1147Y1627D02*
X1182Y1627D01*
X1214Y1627D02*
X1249Y1627D01*
X1447Y1627D02*
X1482Y1627D01*
X1514Y1627D02*
X1549Y1627D01*
X1147Y1626D02*
X1182Y1626D01*
X1214Y1626D02*
X1249Y1626D01*
X1447Y1626D02*
X1482Y1626D01*
X1514Y1626D02*
X1549Y1626D01*
X1146Y1625D02*
X1182Y1625D01*
X1214Y1625D02*
X1249Y1625D01*
X1446Y1625D02*
X1482Y1625D01*
X1514Y1625D02*
X1549Y1625D01*
X1146Y1624D02*
X1181Y1624D01*
X1214Y1624D02*
X1249Y1624D01*
X1446Y1624D02*
X1481Y1624D01*
X1514Y1624D02*
X1549Y1624D01*
X1146Y1623D02*
X1181Y1623D01*
X1214Y1623D02*
X1249Y1623D01*
X1446Y1623D02*
X1481Y1623D01*
X1514Y1623D02*
X1549Y1623D01*
X1146Y1622D02*
X1181Y1622D01*
X1214Y1622D02*
X1249Y1622D01*
X1446Y1622D02*
X1481Y1622D01*
X1514Y1622D02*
X1549Y1622D01*
X1146Y1621D02*
X1181Y1621D01*
X1214Y1621D02*
X1249Y1621D01*
X1446Y1621D02*
X1481Y1621D01*
X1514Y1621D02*
X1549Y1621D01*
X1146Y1620D02*
X1182Y1620D01*
X1214Y1620D02*
X1249Y1620D01*
X1446Y1620D02*
X1482Y1620D01*
X1514Y1620D02*
X1549Y1620D01*
X1147Y1619D02*
X1182Y1619D01*
X1214Y1619D02*
X1249Y1619D01*
X1447Y1619D02*
X1482Y1619D01*
X1514Y1619D02*
X1549Y1619D01*
X1147Y1618D02*
X1182Y1618D01*
X1214Y1618D02*
X1249Y1618D01*
X1447Y1618D02*
X1482Y1618D01*
X1514Y1618D02*
X1549Y1618D01*
X1147Y1617D02*
X1182Y1617D01*
X1213Y1617D02*
X1249Y1617D01*
X1447Y1617D02*
X1482Y1617D01*
X1513Y1617D02*
X1549Y1617D01*
X1147Y1616D02*
X1183Y1616D01*
X1213Y1616D02*
X1249Y1616D01*
X1447Y1616D02*
X1483Y1616D01*
X1513Y1616D02*
X1548Y1616D01*
X1147Y1615D02*
X1183Y1615D01*
X1212Y1615D02*
X1248Y1615D01*
X1447Y1615D02*
X1483Y1615D01*
X1512Y1615D02*
X1548Y1615D01*
X1148Y1614D02*
X1184Y1614D01*
X1212Y1614D02*
X1248Y1614D01*
X1448Y1614D02*
X1484Y1614D01*
X1512Y1614D02*
X1548Y1614D01*
X1148Y1613D02*
X1184Y1613D01*
X1211Y1613D02*
X1248Y1613D01*
X1448Y1613D02*
X1484Y1613D01*
X1511Y1613D02*
X1548Y1613D01*
X1149Y1612D02*
X1185Y1612D01*
X1210Y1612D02*
X1247Y1612D01*
X1448Y1612D02*
X1485Y1612D01*
X1510Y1612D02*
X1547Y1612D01*
X1149Y1611D02*
X1186Y1611D01*
X1210Y1611D02*
X1247Y1611D01*
X1449Y1611D02*
X1486Y1611D01*
X1509Y1611D02*
X1547Y1611D01*
X1150Y1610D02*
X1187Y1610D01*
X1208Y1610D02*
X1246Y1610D01*
X1450Y1610D02*
X1487Y1610D01*
X1508Y1610D02*
X1546Y1610D01*
X1150Y1609D02*
X1189Y1609D01*
X1207Y1609D02*
X1246Y1609D01*
X1450Y1609D02*
X1489Y1609D01*
X1507Y1609D02*
X1545Y1609D01*
X1151Y1608D02*
X1190Y1608D01*
X1205Y1608D02*
X1245Y1608D01*
X1451Y1608D02*
X1490Y1608D01*
X1505Y1608D02*
X1545Y1608D01*
X1151Y1607D02*
X1193Y1607D01*
X1202Y1607D02*
X1244Y1607D01*
X1451Y1607D02*
X1493Y1607D01*
X1502Y1607D02*
X1544Y1607D01*
X1152Y1606D02*
X1243Y1606D01*
X1452Y1606D02*
X1543Y1606D01*
X1153Y1605D02*
X1243Y1605D01*
X1453Y1605D02*
X1543Y1605D01*
X1154Y1604D02*
X1242Y1604D01*
X1454Y1604D02*
X1542Y1604D01*
X1155Y1603D02*
X1240Y1603D01*
X1455Y1603D02*
X1540Y1603D01*
X1156Y1602D02*
X1239Y1602D01*
X1456Y1602D02*
X1539Y1602D01*
X1158Y1601D02*
X1238Y1601D01*
X1458Y1601D02*
X1538Y1601D01*
X1159Y1600D02*
X1236Y1600D01*
X1459Y1600D02*
X1536Y1600D01*
X1161Y1599D02*
X1234Y1599D01*
X1461Y1599D02*
X1534Y1599D01*
X1163Y1598D02*
X1232Y1598D01*
X1463Y1598D02*
X1532Y1598D01*
X1167Y1597D02*
X1229Y1597D01*
X1467Y1597D02*
X1529Y1597D01*
X1168Y1548D02*
X1228Y1548D01*
X1468Y1548D02*
X1528Y1548D01*
X1164Y1547D02*
X1232Y1547D01*
X1464Y1547D02*
X1532Y1547D01*
X1162Y1546D02*
X1234Y1546D01*
X1462Y1546D02*
X1534Y1546D01*
X1160Y1545D02*
X1236Y1545D01*
X1460Y1545D02*
X1536Y1545D01*
X1158Y1544D02*
X1238Y1544D01*
X1458Y1544D02*
X1538Y1544D01*
X1157Y1543D02*
X1239Y1543D01*
X1457Y1543D02*
X1539Y1543D01*
X1155Y1542D02*
X1240Y1542D01*
X1455Y1542D02*
X1540Y1542D01*
X1154Y1541D02*
X1241Y1541D01*
X1454Y1541D02*
X1541Y1541D01*
X1153Y1540D02*
X1242Y1540D01*
X1453Y1540D02*
X1542Y1540D01*
X1152Y1539D02*
X1243Y1539D01*
X1452Y1539D02*
X1543Y1539D01*
X1152Y1538D02*
X1194Y1538D01*
X1202Y1538D02*
X1244Y1538D01*
X1452Y1538D02*
X1494Y1538D01*
X1502Y1538D02*
X1544Y1538D01*
X1151Y1537D02*
X1191Y1537D01*
X1205Y1537D02*
X1245Y1537D01*
X1451Y1537D02*
X1491Y1537D01*
X1505Y1537D02*
X1545Y1537D01*
X1150Y1536D02*
X1189Y1536D01*
X1207Y1536D02*
X1245Y1536D01*
X1450Y1536D02*
X1489Y1536D01*
X1507Y1536D02*
X1545Y1536D01*
X1150Y1535D02*
X1188Y1535D01*
X1208Y1535D02*
X1246Y1535D01*
X1450Y1535D02*
X1488Y1535D01*
X1508Y1535D02*
X1546Y1535D01*
X1149Y1534D02*
X1186Y1534D01*
X1209Y1534D02*
X1246Y1534D01*
X1449Y1534D02*
X1486Y1534D01*
X1509Y1534D02*
X1546Y1534D01*
X1149Y1533D02*
X1185Y1533D01*
X1210Y1533D02*
X1247Y1533D01*
X1449Y1533D02*
X1485Y1533D01*
X1510Y1533D02*
X1547Y1533D01*
X1148Y1532D02*
X1185Y1532D01*
X1211Y1532D02*
X1247Y1532D01*
X1448Y1532D02*
X1485Y1532D01*
X1511Y1532D02*
X1547Y1532D01*
X1148Y1531D02*
X1184Y1531D01*
X1212Y1531D02*
X1248Y1531D01*
X1448Y1531D02*
X1484Y1531D01*
X1512Y1531D02*
X1548Y1531D01*
X1147Y1530D02*
X1183Y1530D01*
X1212Y1530D02*
X1248Y1530D01*
X1447Y1530D02*
X1483Y1530D01*
X1512Y1530D02*
X1548Y1530D01*
X1147Y1529D02*
X1183Y1529D01*
X1213Y1529D02*
X1248Y1529D01*
X1447Y1529D02*
X1483Y1529D01*
X1513Y1529D02*
X1548Y1529D01*
X1147Y1528D02*
X1182Y1528D01*
X1213Y1528D02*
X1249Y1528D01*
X1447Y1528D02*
X1482Y1528D01*
X1513Y1528D02*
X1549Y1528D01*
X1147Y1527D02*
X1182Y1527D01*
X1214Y1527D02*
X1249Y1527D01*
X1447Y1527D02*
X1482Y1527D01*
X1514Y1527D02*
X1549Y1527D01*
X1147Y1526D02*
X1182Y1526D01*
X1214Y1526D02*
X1249Y1526D01*
X1447Y1526D02*
X1482Y1526D01*
X1514Y1526D02*
X1549Y1526D01*
X1146Y1525D02*
X1182Y1525D01*
X1214Y1525D02*
X1249Y1525D01*
X1446Y1525D02*
X1482Y1525D01*
X1514Y1525D02*
X1549Y1525D01*
X1146Y1524D02*
X1181Y1524D01*
X1214Y1524D02*
X1249Y1524D01*
X1446Y1524D02*
X1481Y1524D01*
X1514Y1524D02*
X1549Y1524D01*
X1146Y1523D02*
X1181Y1523D01*
X1214Y1523D02*
X1249Y1523D01*
X1446Y1523D02*
X1481Y1523D01*
X1514Y1523D02*
X1549Y1523D01*
X1146Y1522D02*
X1181Y1522D01*
X1214Y1522D02*
X1249Y1522D01*
X1446Y1522D02*
X1481Y1522D01*
X1514Y1522D02*
X1549Y1522D01*
X1146Y1521D02*
X1181Y1521D01*
X1214Y1521D02*
X1249Y1521D01*
X1446Y1521D02*
X1481Y1521D01*
X1514Y1521D02*
X1549Y1521D01*
X1146Y1520D02*
X1182Y1520D01*
X1214Y1520D02*
X1249Y1520D01*
X1446Y1520D02*
X1482Y1520D01*
X1514Y1520D02*
X1549Y1520D01*
X1147Y1519D02*
X1182Y1519D01*
X1214Y1519D02*
X1249Y1519D01*
X1447Y1519D02*
X1482Y1519D01*
X1514Y1519D02*
X1549Y1519D01*
X1147Y1518D02*
X1182Y1518D01*
X1214Y1518D02*
X1249Y1518D01*
X1447Y1518D02*
X1482Y1518D01*
X1514Y1518D02*
X1549Y1518D01*
X1147Y1517D02*
X1182Y1517D01*
X1213Y1517D02*
X1249Y1517D01*
X1447Y1517D02*
X1482Y1517D01*
X1513Y1517D02*
X1549Y1517D01*
X1147Y1516D02*
X1183Y1516D01*
X1213Y1516D02*
X1248Y1516D01*
X1447Y1516D02*
X1483Y1516D01*
X1513Y1516D02*
X1548Y1516D01*
X1147Y1515D02*
X1183Y1515D01*
X1212Y1515D02*
X1248Y1515D01*
X1447Y1515D02*
X1483Y1515D01*
X1512Y1515D02*
X1548Y1515D01*
X1148Y1514D02*
X1184Y1514D01*
X1212Y1514D02*
X1248Y1514D01*
X1448Y1514D02*
X1484Y1514D01*
X1512Y1514D02*
X1548Y1514D01*
X1148Y1513D02*
X1184Y1513D01*
X1211Y1513D02*
X1248Y1513D01*
X1448Y1513D02*
X1484Y1513D01*
X1511Y1513D02*
X1548Y1513D01*
X1149Y1512D02*
X1185Y1512D01*
X1210Y1512D02*
X1247Y1512D01*
X1449Y1512D02*
X1485Y1512D01*
X1510Y1512D02*
X1547Y1512D01*
X1149Y1511D02*
X1186Y1511D01*
X1209Y1511D02*
X1247Y1511D01*
X1449Y1511D02*
X1486Y1511D01*
X1509Y1511D02*
X1547Y1511D01*
X1150Y1510D02*
X1187Y1510D01*
X1208Y1510D02*
X1246Y1510D01*
X1450Y1510D02*
X1487Y1510D01*
X1508Y1510D02*
X1546Y1510D01*
X1150Y1509D02*
X1189Y1509D01*
X1207Y1509D02*
X1245Y1509D01*
X1450Y1509D02*
X1489Y1509D01*
X1507Y1509D02*
X1545Y1509D01*
X1151Y1508D02*
X1191Y1508D01*
X1205Y1508D02*
X1245Y1508D01*
X1451Y1508D02*
X1490Y1508D01*
X1505Y1508D02*
X1545Y1508D01*
X1152Y1507D02*
X1193Y1507D01*
X1202Y1507D02*
X1244Y1507D01*
X1451Y1507D02*
X1493Y1507D01*
X1502Y1507D02*
X1544Y1507D01*
X1152Y1506D02*
X1243Y1506D01*
X1452Y1506D02*
X1543Y1506D01*
X1153Y1505D02*
X1242Y1505D01*
X1453Y1505D02*
X1542Y1505D01*
X1154Y1504D02*
X1242Y1504D01*
X1454Y1504D02*
X1542Y1504D01*
X1155Y1503D02*
X1240Y1503D01*
X1455Y1503D02*
X1540Y1503D01*
X1156Y1502D02*
X1239Y1502D01*
X1456Y1502D02*
X1539Y1502D01*
X1158Y1501D02*
X1238Y1501D01*
X1458Y1501D02*
X1538Y1501D01*
X1159Y1500D02*
X1236Y1500D01*
X1459Y1500D02*
X1536Y1500D01*
X1161Y1499D02*
X1234Y1499D01*
X1461Y1499D02*
X1534Y1499D01*
X1163Y1498D02*
X1232Y1498D01*
X1463Y1498D02*
X1532Y1498D01*
X1167Y1497D02*
X1229Y1497D01*
X1467Y1497D02*
X1529Y1497D01*
X1168Y1448D02*
X1228Y1448D01*
X1468Y1448D02*
X1528Y1448D01*
X1164Y1447D02*
X1232Y1447D01*
X1464Y1447D02*
X1532Y1447D01*
X1161Y1446D02*
X1234Y1446D01*
X1461Y1446D02*
X1534Y1446D01*
X1160Y1445D02*
X1236Y1445D01*
X1460Y1445D02*
X1536Y1445D01*
X1158Y1444D02*
X1238Y1444D01*
X1458Y1444D02*
X1538Y1444D01*
X1157Y1443D02*
X1239Y1443D01*
X1457Y1443D02*
X1539Y1443D01*
X1155Y1442D02*
X1240Y1442D01*
X1455Y1442D02*
X1540Y1442D01*
X1154Y1441D02*
X1241Y1441D01*
X1454Y1441D02*
X1541Y1441D01*
X1153Y1440D02*
X1242Y1440D01*
X1453Y1440D02*
X1542Y1440D01*
X1152Y1439D02*
X1243Y1439D01*
X1452Y1439D02*
X1543Y1439D01*
X1152Y1438D02*
X1194Y1438D01*
X1202Y1438D02*
X1244Y1438D01*
X1452Y1438D02*
X1494Y1438D01*
X1502Y1438D02*
X1544Y1438D01*
X1151Y1437D02*
X1191Y1437D01*
X1205Y1437D02*
X1245Y1437D01*
X1451Y1437D02*
X1491Y1437D01*
X1505Y1437D02*
X1545Y1437D01*
X1150Y1436D02*
X1189Y1436D01*
X1207Y1436D02*
X1245Y1436D01*
X1450Y1436D02*
X1489Y1436D01*
X1507Y1436D02*
X1545Y1436D01*
X1150Y1435D02*
X1188Y1435D01*
X1208Y1435D02*
X1246Y1435D01*
X1450Y1435D02*
X1487Y1435D01*
X1508Y1435D02*
X1546Y1435D01*
X1149Y1434D02*
X1186Y1434D01*
X1209Y1434D02*
X1247Y1434D01*
X1449Y1434D02*
X1486Y1434D01*
X1509Y1434D02*
X1546Y1434D01*
X1149Y1433D02*
X1185Y1433D01*
X1210Y1433D02*
X1247Y1433D01*
X1449Y1433D02*
X1485Y1433D01*
X1510Y1433D02*
X1547Y1433D01*
X1148Y1432D02*
X1185Y1432D01*
X1211Y1432D02*
X1247Y1432D01*
X1448Y1432D02*
X1485Y1432D01*
X1511Y1432D02*
X1547Y1432D01*
X1148Y1431D02*
X1184Y1431D01*
X1212Y1431D02*
X1248Y1431D01*
X1448Y1431D02*
X1484Y1431D01*
X1512Y1431D02*
X1548Y1431D01*
X1147Y1430D02*
X1183Y1430D01*
X1212Y1430D02*
X1248Y1430D01*
X1447Y1430D02*
X1483Y1430D01*
X1512Y1430D02*
X1548Y1430D01*
X1147Y1429D02*
X1183Y1429D01*
X1213Y1429D02*
X1248Y1429D01*
X1447Y1429D02*
X1483Y1429D01*
X1513Y1429D02*
X1548Y1429D01*
X1147Y1428D02*
X1182Y1428D01*
X1213Y1428D02*
X1249Y1428D01*
X1447Y1428D02*
X1482Y1428D01*
X1513Y1428D02*
X1549Y1428D01*
X1147Y1427D02*
X1182Y1427D01*
X1214Y1427D02*
X1249Y1427D01*
X1447Y1427D02*
X1482Y1427D01*
X1514Y1427D02*
X1549Y1427D01*
X1147Y1426D02*
X1182Y1426D01*
X1214Y1426D02*
X1249Y1426D01*
X1447Y1426D02*
X1482Y1426D01*
X1514Y1426D02*
X1549Y1426D01*
X1146Y1425D02*
X1182Y1425D01*
X1214Y1425D02*
X1249Y1425D01*
X1446Y1425D02*
X1482Y1425D01*
X1514Y1425D02*
X1549Y1425D01*
X1146Y1424D02*
X1181Y1424D01*
X1214Y1424D02*
X1249Y1424D01*
X1446Y1424D02*
X1481Y1424D01*
X1514Y1424D02*
X1549Y1424D01*
X1146Y1423D02*
X1181Y1423D01*
X1214Y1423D02*
X1249Y1423D01*
X1446Y1423D02*
X1481Y1423D01*
X1514Y1423D02*
X1549Y1423D01*
X1146Y1422D02*
X1181Y1422D01*
X1214Y1422D02*
X1249Y1422D01*
X1446Y1422D02*
X1481Y1422D01*
X1514Y1422D02*
X1549Y1422D01*
X1146Y1421D02*
X1181Y1421D01*
X1214Y1421D02*
X1249Y1421D01*
X1446Y1421D02*
X1481Y1421D01*
X1514Y1421D02*
X1549Y1421D01*
X1146Y1420D02*
X1182Y1420D01*
X1214Y1420D02*
X1249Y1420D01*
X1446Y1420D02*
X1482Y1420D01*
X1514Y1420D02*
X1549Y1420D01*
X1147Y1419D02*
X1182Y1419D01*
X1214Y1419D02*
X1249Y1419D01*
X1447Y1419D02*
X1482Y1419D01*
X1514Y1419D02*
X1549Y1419D01*
X1147Y1418D02*
X1182Y1418D01*
X1214Y1418D02*
X1249Y1418D01*
X1447Y1418D02*
X1482Y1418D01*
X1514Y1418D02*
X1549Y1418D01*
X1147Y1417D02*
X1182Y1417D01*
X1213Y1417D02*
X1249Y1417D01*
X1447Y1417D02*
X1482Y1417D01*
X1513Y1417D02*
X1549Y1417D01*
X1147Y1416D02*
X1183Y1416D01*
X1213Y1416D02*
X1248Y1416D01*
X1447Y1416D02*
X1483Y1416D01*
X1513Y1416D02*
X1548Y1416D01*
X1147Y1415D02*
X1183Y1415D01*
X1212Y1415D02*
X1248Y1415D01*
X1447Y1415D02*
X1483Y1415D01*
X1512Y1415D02*
X1548Y1415D01*
X1148Y1414D02*
X1184Y1414D01*
X1212Y1414D02*
X1248Y1414D01*
X1448Y1414D02*
X1484Y1414D01*
X1512Y1414D02*
X1548Y1414D01*
X1148Y1413D02*
X1184Y1413D01*
X1211Y1413D02*
X1248Y1413D01*
X1448Y1413D02*
X1484Y1413D01*
X1511Y1413D02*
X1547Y1413D01*
X1149Y1412D02*
X1185Y1412D01*
X1210Y1412D02*
X1247Y1412D01*
X1449Y1412D02*
X1485Y1412D01*
X1510Y1412D02*
X1547Y1412D01*
X1149Y1411D02*
X1186Y1411D01*
X1209Y1411D02*
X1247Y1411D01*
X1449Y1411D02*
X1486Y1411D01*
X1509Y1411D02*
X1547Y1411D01*
X1150Y1410D02*
X1187Y1410D01*
X1208Y1410D02*
X1246Y1410D01*
X1450Y1410D02*
X1487Y1410D01*
X1508Y1410D02*
X1546Y1410D01*
X1150Y1409D02*
X1189Y1409D01*
X1207Y1409D02*
X1245Y1409D01*
X1450Y1409D02*
X1489Y1409D01*
X1507Y1409D02*
X1545Y1409D01*
X1151Y1408D02*
X1191Y1408D01*
X1205Y1408D02*
X1245Y1408D01*
X1451Y1408D02*
X1491Y1408D01*
X1505Y1408D02*
X1545Y1408D01*
X1152Y1407D02*
X1193Y1407D01*
X1202Y1407D02*
X1244Y1407D01*
X1452Y1407D02*
X1493Y1407D01*
X1502Y1407D02*
X1544Y1407D01*
X1152Y1406D02*
X1243Y1406D01*
X1452Y1406D02*
X1543Y1406D01*
X1153Y1405D02*
X1242Y1405D01*
X1453Y1405D02*
X1542Y1405D01*
X1154Y1404D02*
X1242Y1404D01*
X1454Y1404D02*
X1542Y1404D01*
X1155Y1403D02*
X1240Y1403D01*
X1455Y1403D02*
X1540Y1403D01*
X1156Y1402D02*
X1239Y1402D01*
X1456Y1402D02*
X1539Y1402D01*
X1158Y1401D02*
X1238Y1401D01*
X1458Y1401D02*
X1538Y1401D01*
X1159Y1400D02*
X1236Y1400D01*
X1459Y1400D02*
X1536Y1400D01*
X1161Y1399D02*
X1234Y1399D01*
X1461Y1399D02*
X1534Y1399D01*
X1164Y1398D02*
X1232Y1398D01*
X1464Y1398D02*
X1532Y1398D01*
X1167Y1397D02*
X1229Y1397D01*
X1467Y1397D02*
X1529Y1397D01*
X1167Y1348D02*
X1228Y1348D01*
X1467Y1348D02*
X1528Y1348D01*
X1164Y1347D02*
X1232Y1347D01*
X1464Y1347D02*
X1532Y1347D01*
X1161Y1346D02*
X1234Y1346D01*
X1461Y1346D02*
X1534Y1346D01*
X1160Y1345D02*
X1236Y1345D01*
X1460Y1345D02*
X1536Y1345D01*
X1158Y1344D02*
X1238Y1344D01*
X1458Y1344D02*
X1538Y1344D01*
X1157Y1343D02*
X1239Y1343D01*
X1456Y1343D02*
X1539Y1343D01*
X1155Y1342D02*
X1240Y1342D01*
X1455Y1342D02*
X1540Y1342D01*
X1154Y1341D02*
X1242Y1341D01*
X1454Y1341D02*
X1542Y1341D01*
X1153Y1340D02*
X1242Y1340D01*
X1453Y1340D02*
X1542Y1340D01*
X1152Y1339D02*
X1243Y1339D01*
X1452Y1339D02*
X1543Y1339D01*
X1152Y1338D02*
X1194Y1338D01*
X1202Y1338D02*
X1244Y1338D01*
X1452Y1338D02*
X1494Y1338D01*
X1502Y1338D02*
X1544Y1338D01*
X1151Y1337D02*
X1191Y1337D01*
X1205Y1337D02*
X1245Y1337D01*
X1451Y1337D02*
X1491Y1337D01*
X1505Y1337D02*
X1545Y1337D01*
X1150Y1336D02*
X1189Y1336D01*
X1207Y1336D02*
X1245Y1336D01*
X1450Y1336D02*
X1489Y1336D01*
X1507Y1336D02*
X1545Y1336D01*
X1150Y1335D02*
X1187Y1335D01*
X1208Y1335D02*
X1246Y1335D01*
X1450Y1335D02*
X1487Y1335D01*
X1508Y1335D02*
X1546Y1335D01*
X1149Y1334D02*
X1186Y1334D01*
X1209Y1334D02*
X1247Y1334D01*
X1449Y1334D02*
X1486Y1334D01*
X1509Y1334D02*
X1546Y1334D01*
X1149Y1333D02*
X1185Y1333D01*
X1210Y1333D02*
X1247Y1333D01*
X1449Y1333D02*
X1485Y1333D01*
X1510Y1333D02*
X1547Y1333D01*
X1148Y1332D02*
X1185Y1332D01*
X1211Y1332D02*
X1248Y1332D01*
X1448Y1332D02*
X1484Y1332D01*
X1511Y1332D02*
X1547Y1332D01*
X1148Y1331D02*
X1184Y1331D01*
X1212Y1331D02*
X1248Y1331D01*
X1448Y1331D02*
X1484Y1331D01*
X1512Y1331D02*
X1548Y1331D01*
X1147Y1330D02*
X1183Y1330D01*
X1212Y1330D02*
X1248Y1330D01*
X1447Y1330D02*
X1483Y1330D01*
X1512Y1330D02*
X1548Y1330D01*
X1147Y1329D02*
X1183Y1329D01*
X1213Y1329D02*
X1248Y1329D01*
X1447Y1329D02*
X1483Y1329D01*
X1513Y1329D02*
X1548Y1329D01*
X1147Y1328D02*
X1182Y1328D01*
X1213Y1328D02*
X1249Y1328D01*
X1447Y1328D02*
X1482Y1328D01*
X1513Y1328D02*
X1549Y1328D01*
X1147Y1327D02*
X1182Y1327D01*
X1214Y1327D02*
X1249Y1327D01*
X1447Y1327D02*
X1482Y1327D01*
X1514Y1327D02*
X1549Y1327D01*
X1147Y1326D02*
X1182Y1326D01*
X1214Y1326D02*
X1249Y1326D01*
X1447Y1326D02*
X1482Y1326D01*
X1514Y1326D02*
X1549Y1326D01*
X1146Y1325D02*
X1182Y1325D01*
X1214Y1325D02*
X1249Y1325D01*
X1446Y1325D02*
X1482Y1325D01*
X1514Y1325D02*
X1549Y1325D01*
X1146Y1324D02*
X1181Y1324D01*
X1214Y1324D02*
X1249Y1324D01*
X1446Y1324D02*
X1481Y1324D01*
X1514Y1324D02*
X1549Y1324D01*
X1146Y1323D02*
X1181Y1323D01*
X1214Y1323D02*
X1249Y1323D01*
X1446Y1323D02*
X1481Y1323D01*
X1514Y1323D02*
X1549Y1323D01*
X1146Y1322D02*
X1181Y1322D01*
X1214Y1322D02*
X1249Y1322D01*
X1446Y1322D02*
X1481Y1322D01*
X1514Y1322D02*
X1549Y1322D01*
X1146Y1321D02*
X1181Y1321D01*
X1214Y1321D02*
X1249Y1321D01*
X1446Y1321D02*
X1481Y1321D01*
X1514Y1321D02*
X1549Y1321D01*
X1146Y1320D02*
X1182Y1320D01*
X1214Y1320D02*
X1249Y1320D01*
X1446Y1320D02*
X1482Y1320D01*
X1514Y1320D02*
X1549Y1320D01*
X1147Y1319D02*
X1182Y1319D01*
X1214Y1319D02*
X1249Y1319D01*
X1447Y1319D02*
X1482Y1319D01*
X1514Y1319D02*
X1549Y1319D01*
X1147Y1318D02*
X1182Y1318D01*
X1214Y1318D02*
X1249Y1318D01*
X1447Y1318D02*
X1482Y1318D01*
X1514Y1318D02*
X1549Y1318D01*
X1147Y1317D02*
X1182Y1317D01*
X1213Y1317D02*
X1249Y1317D01*
X1447Y1317D02*
X1482Y1317D01*
X1513Y1317D02*
X1549Y1317D01*
X1147Y1316D02*
X1183Y1316D01*
X1213Y1316D02*
X1248Y1316D01*
X1447Y1316D02*
X1483Y1316D01*
X1513Y1316D02*
X1548Y1316D01*
X1147Y1315D02*
X1183Y1315D01*
X1212Y1315D02*
X1248Y1315D01*
X1447Y1315D02*
X1483Y1315D01*
X1512Y1315D02*
X1548Y1315D01*
X1148Y1314D02*
X1184Y1314D01*
X1212Y1314D02*
X1248Y1314D01*
X1448Y1314D02*
X1484Y1314D01*
X1512Y1314D02*
X1548Y1314D01*
X1148Y1313D02*
X1185Y1313D01*
X1211Y1313D02*
X1248Y1313D01*
X1448Y1313D02*
X1484Y1313D01*
X1511Y1313D02*
X1547Y1313D01*
X1149Y1312D02*
X1185Y1312D01*
X1210Y1312D02*
X1247Y1312D01*
X1449Y1312D02*
X1485Y1312D01*
X1510Y1312D02*
X1547Y1312D01*
X1149Y1311D02*
X1186Y1311D01*
X1209Y1311D02*
X1247Y1311D01*
X1449Y1311D02*
X1486Y1311D01*
X1509Y1311D02*
X1547Y1311D01*
X1150Y1310D02*
X1187Y1310D01*
X1208Y1310D02*
X1246Y1310D01*
X1450Y1310D02*
X1487Y1310D01*
X1508Y1310D02*
X1546Y1310D01*
X1150Y1309D02*
X1189Y1309D01*
X1207Y1309D02*
X1245Y1309D01*
X1450Y1309D02*
X1489Y1309D01*
X1507Y1309D02*
X1545Y1309D01*
X1151Y1308D02*
X1191Y1308D01*
X1205Y1308D02*
X1245Y1308D01*
X1451Y1308D02*
X1491Y1308D01*
X1505Y1308D02*
X1545Y1308D01*
X1152Y1307D02*
X1194Y1307D01*
X1202Y1307D02*
X1244Y1307D01*
X1452Y1307D02*
X1494Y1307D01*
X1502Y1307D02*
X1544Y1307D01*
X1152Y1306D02*
X1243Y1306D01*
X1452Y1306D02*
X1543Y1306D01*
X1153Y1305D02*
X1242Y1305D01*
X1453Y1305D02*
X1542Y1305D01*
X1154Y1304D02*
X1242Y1304D01*
X1454Y1304D02*
X1542Y1304D01*
X1155Y1303D02*
X1240Y1303D01*
X1455Y1303D02*
X1540Y1303D01*
X1157Y1302D02*
X1239Y1302D01*
X1456Y1302D02*
X1539Y1302D01*
X1158Y1301D02*
X1238Y1301D01*
X1458Y1301D02*
X1538Y1301D01*
X1160Y1300D02*
X1236Y1300D01*
X1459Y1300D02*
X1536Y1300D01*
X1161Y1299D02*
X1234Y1299D01*
X1461Y1299D02*
X1534Y1299D01*
X1164Y1298D02*
X1232Y1298D01*
X1464Y1298D02*
X1532Y1298D01*
X1167Y1297D02*
X1228Y1297D01*
X1467Y1297D02*
X1528Y1297D01*
X1167Y1248D02*
X1228Y1248D01*
X1467Y1248D02*
X1528Y1248D01*
X1164Y1247D02*
X1232Y1247D01*
X1464Y1247D02*
X1532Y1247D01*
X1161Y1246D02*
X1234Y1246D01*
X1461Y1246D02*
X1534Y1246D01*
X1159Y1245D02*
X1236Y1245D01*
X1459Y1245D02*
X1536Y1245D01*
X1158Y1244D02*
X1238Y1244D01*
X1458Y1244D02*
X1538Y1244D01*
X1156Y1243D02*
X1239Y1243D01*
X1456Y1243D02*
X1539Y1243D01*
X1155Y1242D02*
X1240Y1242D01*
X1455Y1242D02*
X1540Y1242D01*
X1154Y1241D02*
X1242Y1241D01*
X1454Y1241D02*
X1542Y1241D01*
X1153Y1240D02*
X1242Y1240D01*
X1453Y1240D02*
X1542Y1240D01*
X1152Y1239D02*
X1243Y1239D01*
X1452Y1239D02*
X1543Y1239D01*
X1152Y1238D02*
X1194Y1238D01*
X1202Y1238D02*
X1244Y1238D01*
X1452Y1238D02*
X1493Y1238D01*
X1502Y1238D02*
X1544Y1238D01*
X1151Y1237D02*
X1191Y1237D01*
X1205Y1237D02*
X1245Y1237D01*
X1451Y1237D02*
X1491Y1237D01*
X1505Y1237D02*
X1545Y1237D01*
X1150Y1236D02*
X1189Y1236D01*
X1207Y1236D02*
X1245Y1236D01*
X1450Y1236D02*
X1489Y1236D01*
X1507Y1236D02*
X1545Y1236D01*
X1150Y1235D02*
X1187Y1235D01*
X1208Y1235D02*
X1246Y1235D01*
X1450Y1235D02*
X1487Y1235D01*
X1508Y1235D02*
X1546Y1235D01*
X1149Y1234D02*
X1186Y1234D01*
X1209Y1234D02*
X1247Y1234D01*
X1449Y1234D02*
X1486Y1234D01*
X1509Y1234D02*
X1547Y1234D01*
X1149Y1233D02*
X1185Y1233D01*
X1210Y1233D02*
X1247Y1233D01*
X1449Y1233D02*
X1485Y1233D01*
X1510Y1233D02*
X1547Y1233D01*
X1148Y1232D02*
X1185Y1232D01*
X1211Y1232D02*
X1248Y1232D01*
X1448Y1232D02*
X1484Y1232D01*
X1511Y1232D02*
X1547Y1232D01*
X1148Y1231D02*
X1184Y1231D01*
X1212Y1231D02*
X1248Y1231D01*
X1448Y1231D02*
X1484Y1231D01*
X1512Y1231D02*
X1548Y1231D01*
X1147Y1230D02*
X1183Y1230D01*
X1212Y1230D02*
X1248Y1230D01*
X1447Y1230D02*
X1483Y1230D01*
X1512Y1230D02*
X1548Y1230D01*
X1147Y1229D02*
X1183Y1229D01*
X1213Y1229D02*
X1248Y1229D01*
X1447Y1229D02*
X1483Y1229D01*
X1513Y1229D02*
X1548Y1229D01*
X1147Y1228D02*
X1182Y1228D01*
X1213Y1228D02*
X1249Y1228D01*
X1447Y1228D02*
X1482Y1228D01*
X1513Y1228D02*
X1549Y1228D01*
X1147Y1227D02*
X1182Y1227D01*
X1214Y1227D02*
X1249Y1227D01*
X1447Y1227D02*
X1482Y1227D01*
X1514Y1227D02*
X1549Y1227D01*
X1147Y1226D02*
X1182Y1226D01*
X1214Y1226D02*
X1249Y1226D01*
X1447Y1226D02*
X1482Y1226D01*
X1514Y1226D02*
X1549Y1226D01*
X1146Y1225D02*
X1182Y1225D01*
X1214Y1225D02*
X1249Y1225D01*
X1446Y1225D02*
X1482Y1225D01*
X1514Y1225D02*
X1549Y1225D01*
X1146Y1224D02*
X1181Y1224D01*
X1214Y1224D02*
X1249Y1224D01*
X1446Y1224D02*
X1481Y1224D01*
X1514Y1224D02*
X1549Y1224D01*
X1146Y1223D02*
X1181Y1223D01*
X1214Y1223D02*
X1249Y1223D01*
X1446Y1223D02*
X1481Y1223D01*
X1514Y1223D02*
X1549Y1223D01*
X1146Y1222D02*
X1181Y1222D01*
X1214Y1222D02*
X1249Y1222D01*
X1446Y1222D02*
X1481Y1222D01*
X1514Y1222D02*
X1549Y1222D01*
X1146Y1221D02*
X1181Y1221D01*
X1214Y1221D02*
X1249Y1221D01*
X1446Y1221D02*
X1481Y1221D01*
X1514Y1221D02*
X1549Y1221D01*
X1146Y1220D02*
X1182Y1220D01*
X1214Y1220D02*
X1249Y1220D01*
X1446Y1220D02*
X1482Y1220D01*
X1514Y1220D02*
X1549Y1220D01*
X1147Y1219D02*
X1182Y1219D01*
X1214Y1219D02*
X1249Y1219D01*
X1447Y1219D02*
X1482Y1219D01*
X1514Y1219D02*
X1549Y1219D01*
X1147Y1218D02*
X1182Y1218D01*
X1214Y1218D02*
X1249Y1218D01*
X1447Y1218D02*
X1482Y1218D01*
X1514Y1218D02*
X1549Y1218D01*
X1147Y1217D02*
X1182Y1217D01*
X1213Y1217D02*
X1249Y1217D01*
X1447Y1217D02*
X1482Y1217D01*
X1513Y1217D02*
X1549Y1217D01*
X1147Y1216D02*
X1183Y1216D01*
X1213Y1216D02*
X1248Y1216D01*
X1447Y1216D02*
X1483Y1216D01*
X1513Y1216D02*
X1548Y1216D01*
X1147Y1215D02*
X1183Y1215D01*
X1212Y1215D02*
X1248Y1215D01*
X1447Y1215D02*
X1483Y1215D01*
X1512Y1215D02*
X1548Y1215D01*
X1148Y1214D02*
X1184Y1214D01*
X1212Y1214D02*
X1248Y1214D01*
X1448Y1214D02*
X1484Y1214D01*
X1512Y1214D02*
X1548Y1214D01*
X1148Y1213D02*
X1185Y1213D01*
X1211Y1213D02*
X1247Y1213D01*
X1448Y1213D02*
X1485Y1213D01*
X1511Y1213D02*
X1547Y1213D01*
X1149Y1212D02*
X1185Y1212D01*
X1210Y1212D02*
X1247Y1212D01*
X1449Y1212D02*
X1485Y1212D01*
X1510Y1212D02*
X1547Y1212D01*
X1149Y1211D02*
X1186Y1211D01*
X1209Y1211D02*
X1247Y1211D01*
X1449Y1211D02*
X1486Y1211D01*
X1509Y1211D02*
X1546Y1211D01*
X1150Y1210D02*
X1188Y1210D01*
X1208Y1210D02*
X1246Y1210D01*
X1450Y1210D02*
X1487Y1210D01*
X1508Y1210D02*
X1546Y1210D01*
X1150Y1209D02*
X1189Y1209D01*
X1207Y1209D02*
X1245Y1209D01*
X1450Y1209D02*
X1489Y1209D01*
X1507Y1209D02*
X1545Y1209D01*
X1151Y1208D02*
X1191Y1208D01*
X1205Y1208D02*
X1245Y1208D01*
X1451Y1208D02*
X1491Y1208D01*
X1505Y1208D02*
X1545Y1208D01*
X1152Y1207D02*
X1194Y1207D01*
X1202Y1207D02*
X1244Y1207D01*
X1452Y1207D02*
X1494Y1207D01*
X1502Y1207D02*
X1544Y1207D01*
X1152Y1206D02*
X1243Y1206D01*
X1452Y1206D02*
X1543Y1206D01*
X1153Y1205D02*
X1242Y1205D01*
X1453Y1205D02*
X1542Y1205D01*
X1154Y1204D02*
X1242Y1204D01*
X1454Y1204D02*
X1541Y1204D01*
X1155Y1203D02*
X1240Y1203D01*
X1455Y1203D02*
X1540Y1203D01*
X1157Y1202D02*
X1239Y1202D01*
X1457Y1202D02*
X1539Y1202D01*
X1158Y1201D02*
X1238Y1201D01*
X1458Y1201D02*
X1538Y1201D01*
X1160Y1200D02*
X1236Y1200D01*
X1460Y1200D02*
X1536Y1200D01*
X1161Y1199D02*
X1234Y1199D01*
X1461Y1199D02*
X1534Y1199D01*
X1164Y1198D02*
X1232Y1198D01*
X1464Y1198D02*
X1532Y1198D01*
X1167Y1197D02*
X1228Y1197D01*
X1467Y1197D02*
X1528Y1197D01*
X1639Y355D02*
X1712Y355D01*
X1639Y354D02*
X1712Y354D01*
X1639Y353D02*
X1712Y353D01*
X1639Y352D02*
X1712Y352D01*
X1639Y351D02*
X1712Y351D01*
X1639Y350D02*
X1712Y350D01*
X1639Y349D02*
X1712Y349D01*
X1639Y348D02*
X1712Y348D01*
X1639Y347D02*
X1712Y347D01*
X1639Y346D02*
X1712Y346D01*
X1639Y345D02*
X1712Y345D01*
X1639Y344D02*
X1712Y344D01*
X1639Y343D02*
X1712Y343D01*
X1639Y342D02*
X1712Y342D01*
X1639Y341D02*
X1712Y341D01*
X1639Y340D02*
X1712Y340D01*
X1639Y339D02*
X1712Y339D01*
X1639Y338D02*
X1673Y338D01*
X1678Y338D02*
X1712Y338D01*
X1639Y337D02*
X1668Y337D01*
X1682Y337D02*
X1712Y337D01*
X1639Y336D02*
X1666Y336D01*
X1685Y336D02*
X1712Y336D01*
X1639Y335D02*
X1664Y335D01*
X1687Y335D02*
X1712Y335D01*
X1639Y334D02*
X1663Y334D01*
X1688Y334D02*
X1712Y334D01*
X1639Y333D02*
X1661Y333D01*
X1689Y333D02*
X1712Y333D01*
X1639Y332D02*
X1660Y332D01*
X1690Y332D02*
X1712Y332D01*
X1639Y331D02*
X1660Y331D01*
X1691Y331D02*
X1712Y331D01*
X1639Y330D02*
X1659Y330D01*
X1692Y330D02*
X1712Y330D01*
X1639Y329D02*
X1658Y329D01*
X1693Y329D02*
X1712Y329D01*
X1639Y328D02*
X1657Y328D01*
X1693Y328D02*
X1712Y328D01*
X1639Y327D02*
X1657Y327D01*
X1694Y327D02*
X1712Y327D01*
X1639Y326D02*
X1656Y326D01*
X1694Y326D02*
X1712Y326D01*
X1639Y325D02*
X1656Y325D01*
X1694Y325D02*
X1712Y325D01*
X1639Y324D02*
X1656Y324D01*
X1695Y324D02*
X1712Y324D01*
X1639Y323D02*
X1655Y323D01*
X1695Y323D02*
X1712Y323D01*
X1639Y322D02*
X1655Y322D01*
X1695Y322D02*
X1712Y322D01*
X1639Y321D02*
X1655Y321D01*
X1695Y321D02*
X1712Y321D01*
X1639Y320D02*
X1655Y320D01*
X1696Y320D02*
X1712Y320D01*
X1639Y319D02*
X1655Y319D01*
X1696Y319D02*
X1712Y319D01*
X1639Y318D02*
X1655Y318D01*
X1696Y318D02*
X1712Y318D01*
X1639Y317D02*
X1655Y317D01*
X1696Y317D02*
X1712Y317D01*
X1639Y316D02*
X1655Y316D01*
X1696Y316D02*
X1712Y316D01*
X1639Y315D02*
X1655Y315D01*
X1695Y315D02*
X1712Y315D01*
X1639Y314D02*
X1655Y314D01*
X1695Y314D02*
X1712Y314D01*
X1639Y313D02*
X1656Y313D01*
X1695Y313D02*
X1712Y313D01*
X1639Y312D02*
X1656Y312D01*
X1695Y312D02*
X1712Y312D01*
X1639Y311D02*
X1656Y311D01*
X1694Y311D02*
X1712Y311D01*
X1639Y310D02*
X1657Y310D01*
X1694Y310D02*
X1712Y310D01*
X1639Y309D02*
X1657Y309D01*
X1693Y309D02*
X1712Y309D01*
X1639Y308D02*
X1658Y308D01*
X1693Y308D02*
X1712Y308D01*
X1639Y307D02*
X1658Y307D01*
X1692Y307D02*
X1712Y307D01*
X1639Y306D02*
X1659Y306D01*
X1691Y306D02*
X1712Y306D01*
X1639Y305D02*
X1660Y305D01*
X1691Y305D02*
X1712Y305D01*
X1639Y304D02*
X1661Y304D01*
X1690Y304D02*
X1712Y304D01*
X1639Y303D02*
X1662Y303D01*
X1689Y303D02*
X1712Y303D01*
X1639Y302D02*
X1663Y302D01*
X1687Y302D02*
X1712Y302D01*
X1639Y301D02*
X1665Y301D01*
X1686Y301D02*
X1712Y301D01*
X1639Y300D02*
X1667Y300D01*
X1684Y300D02*
X1712Y300D01*
X1639Y299D02*
X1669Y299D01*
X1681Y299D02*
X1712Y299D01*
X1639Y298D02*
X1712Y298D01*
X1639Y297D02*
X1712Y297D01*
X1639Y296D02*
X1712Y296D01*
X1639Y295D02*
X1712Y295D01*
X1639Y294D02*
X1712Y294D01*
X1639Y293D02*
X1712Y293D01*
X1639Y292D02*
X1712Y292D01*
X1639Y291D02*
X1712Y291D01*
X1639Y290D02*
X1712Y290D01*
X1639Y289D02*
X1712Y289D01*
X1639Y288D02*
X1712Y288D01*
X1639Y287D02*
X1712Y287D01*
X1639Y286D02*
X1712Y286D01*
X1639Y285D02*
X1712Y285D01*
X1639Y284D02*
X1712Y284D01*
X1639Y283D02*
X1712Y283D01*
X1639Y282D02*
X1712Y282D01*
X2149Y220D02*
X2152Y220D01*
X2123Y219D02*
X2126Y219D01*
X2133Y219D02*
X2137Y219D01*
X2149Y219D02*
X2152Y219D01*
X2188Y219D02*
X2190Y219D01*
X2255Y219D02*
X2261Y219D01*
X2297Y219D02*
X2311Y219D01*
X2123Y218D02*
X2127Y218D01*
X2133Y218D02*
X2137Y218D01*
X2149Y218D02*
X2152Y218D01*
X2188Y218D02*
X2190Y218D01*
X2255Y218D02*
X2261Y218D01*
X2297Y218D02*
X2311Y218D01*
X2123Y217D02*
X2127Y217D01*
X2132Y217D02*
X2137Y217D01*
X2150Y217D02*
X2152Y217D01*
X2188Y217D02*
X2190Y217D01*
X2256Y217D02*
X2261Y217D01*
X2297Y217D02*
X2311Y217D01*
X2123Y216D02*
X2128Y216D01*
X2131Y216D02*
X2137Y216D01*
X2188Y216D02*
X2190Y216D01*
X2259Y216D02*
X2261Y216D01*
X2297Y216D02*
X2299Y216D01*
X2303Y216D02*
X2305Y216D01*
X2309Y216D02*
X2311Y216D01*
X2123Y215D02*
X2129Y215D01*
X2131Y215D02*
X2137Y215D01*
X2188Y215D02*
X2190Y215D01*
X2259Y215D02*
X2261Y215D01*
X2297Y215D02*
X2299Y215D01*
X2303Y215D02*
X2305Y215D01*
X2309Y215D02*
X2311Y215D01*
X2123Y214D02*
X2125Y214D01*
X2127Y214D02*
X2133Y214D01*
X2135Y214D02*
X2137Y214D01*
X2188Y214D02*
X2190Y214D01*
X2259Y214D02*
X2261Y214D01*
X2303Y214D02*
X2305Y214D01*
X2123Y213D02*
X2125Y213D01*
X2127Y213D02*
X2132Y213D01*
X2135Y213D02*
X2137Y213D01*
X2147Y213D02*
X2151Y213D01*
X2172Y213D02*
X2179Y213D01*
X2188Y213D02*
X2190Y213D01*
X2195Y213D02*
X2198Y213D01*
X2214Y213D02*
X2220Y213D01*
X2236Y213D02*
X2241Y213D01*
X2259Y213D02*
X2261Y213D01*
X2303Y213D02*
X2305Y213D01*
X2323Y213D02*
X2329Y213D01*
X2345Y213D02*
X2350Y213D01*
X2123Y212D02*
X2125Y212D01*
X2128Y212D02*
X2131Y212D01*
X2135Y212D02*
X2137Y212D01*
X2146Y212D02*
X2152Y212D01*
X2170Y212D02*
X2180Y212D01*
X2188Y212D02*
X2190Y212D01*
X2193Y212D02*
X2200Y212D01*
X2213Y212D02*
X2222Y212D01*
X2234Y212D02*
X2243Y212D01*
X2259Y212D02*
X2261Y212D01*
X2303Y212D02*
X2305Y212D01*
X2322Y212D02*
X2331Y212D01*
X2343Y212D02*
X2352Y212D01*
X2123Y211D02*
X2125Y211D01*
X2129Y211D02*
X2131Y211D01*
X2135Y211D02*
X2137Y211D01*
X2146Y211D02*
X2152Y211D01*
X2169Y211D02*
X2180Y211D01*
X2188Y211D02*
X2190Y211D01*
X2192Y211D02*
X2201Y211D01*
X2213Y211D02*
X2223Y211D01*
X2233Y211D02*
X2244Y211D01*
X2259Y211D02*
X2261Y211D01*
X2303Y211D02*
X2305Y211D01*
X2322Y211D02*
X2332Y211D01*
X2342Y211D02*
X2353Y211D01*
X2123Y210D02*
X2125Y210D01*
X2129Y210D02*
X2131Y210D01*
X2135Y210D02*
X2137Y210D01*
X2150Y210D02*
X2152Y210D01*
X2168Y210D02*
X2172Y210D01*
X2188Y210D02*
X2195Y210D01*
X2198Y210D02*
X2201Y210D01*
X2220Y210D02*
X2223Y210D01*
X2232Y210D02*
X2236Y210D01*
X2242Y210D02*
X2245Y210D01*
X2259Y210D02*
X2261Y210D01*
X2303Y210D02*
X2305Y210D01*
X2329Y210D02*
X2332Y210D01*
X2341Y210D02*
X2345Y210D01*
X2351Y210D02*
X2354Y210D01*
X2123Y209D02*
X2125Y209D01*
X2130Y209D02*
X2130Y209D01*
X2135Y209D02*
X2137Y209D01*
X2150Y209D02*
X2152Y209D01*
X2167Y209D02*
X2171Y209D01*
X2188Y209D02*
X2193Y209D01*
X2199Y209D02*
X2202Y209D01*
X2221Y209D02*
X2223Y209D01*
X2232Y209D02*
X2234Y209D01*
X2243Y209D02*
X2245Y209D01*
X2259Y209D02*
X2261Y209D01*
X2303Y209D02*
X2305Y209D01*
X2330Y209D02*
X2332Y209D01*
X2341Y209D02*
X2343Y209D01*
X2352Y209D02*
X2354Y209D01*
X2123Y208D02*
X2125Y208D01*
X2135Y208D02*
X2137Y208D01*
X2150Y208D02*
X2152Y208D01*
X2167Y208D02*
X2169Y208D01*
X2188Y208D02*
X2192Y208D01*
X2200Y208D02*
X2202Y208D01*
X2221Y208D02*
X2224Y208D01*
X2232Y208D02*
X2234Y208D01*
X2244Y208D02*
X2246Y208D01*
X2259Y208D02*
X2261Y208D01*
X2303Y208D02*
X2305Y208D01*
X2330Y208D02*
X2333Y208D01*
X2341Y208D02*
X2343Y208D01*
X2353Y208D02*
X2355Y208D01*
X2123Y207D02*
X2125Y207D01*
X2135Y207D02*
X2137Y207D01*
X2150Y207D02*
X2152Y207D01*
X2166Y207D02*
X2168Y207D01*
X2188Y207D02*
X2190Y207D01*
X2200Y207D02*
X2202Y207D01*
X2221Y207D02*
X2224Y207D01*
X2232Y207D02*
X2234Y207D01*
X2244Y207D02*
X2246Y207D01*
X2259Y207D02*
X2261Y207D01*
X2303Y207D02*
X2305Y207D01*
X2330Y207D02*
X2333Y207D01*
X2341Y207D02*
X2343Y207D01*
X2353Y207D02*
X2355Y207D01*
X2123Y206D02*
X2125Y206D01*
X2135Y206D02*
X2137Y206D01*
X2150Y206D02*
X2152Y206D01*
X2166Y206D02*
X2168Y206D01*
X2188Y206D02*
X2190Y206D01*
X2200Y206D02*
X2202Y206D01*
X2212Y206D02*
X2224Y206D01*
X2232Y206D02*
X2234Y206D01*
X2244Y206D02*
X2246Y206D01*
X2259Y206D02*
X2261Y206D01*
X2303Y206D02*
X2305Y206D01*
X2321Y206D02*
X2333Y206D01*
X2341Y206D02*
X2343Y206D01*
X2353Y206D02*
X2355Y206D01*
X2123Y205D02*
X2125Y205D01*
X2135Y205D02*
X2137Y205D01*
X2150Y205D02*
X2152Y205D01*
X2166Y205D02*
X2168Y205D01*
X2188Y205D02*
X2190Y205D01*
X2200Y205D02*
X2202Y205D01*
X2211Y205D02*
X2224Y205D01*
X2232Y205D02*
X2246Y205D01*
X2259Y205D02*
X2261Y205D01*
X2303Y205D02*
X2305Y205D01*
X2320Y205D02*
X2333Y205D01*
X2341Y205D02*
X2343Y205D01*
X2353Y205D02*
X2355Y205D01*
X2123Y204D02*
X2125Y204D01*
X2135Y204D02*
X2137Y204D01*
X2150Y204D02*
X2152Y204D01*
X2166Y204D02*
X2168Y204D01*
X2188Y204D02*
X2190Y204D01*
X2200Y204D02*
X2202Y204D01*
X2210Y204D02*
X2224Y204D01*
X2232Y204D02*
X2246Y204D01*
X2259Y204D02*
X2261Y204D01*
X2303Y204D02*
X2305Y204D01*
X2319Y204D02*
X2333Y204D01*
X2341Y204D02*
X2343Y204D01*
X2353Y204D02*
X2355Y204D01*
X2123Y203D02*
X2125Y203D01*
X2135Y203D02*
X2137Y203D01*
X2150Y203D02*
X2152Y203D01*
X2166Y203D02*
X2168Y203D01*
X2188Y203D02*
X2190Y203D01*
X2200Y203D02*
X2202Y203D01*
X2210Y203D02*
X2212Y203D01*
X2221Y203D02*
X2224Y203D01*
X2232Y203D02*
X2245Y203D01*
X2259Y203D02*
X2261Y203D01*
X2303Y203D02*
X2305Y203D01*
X2319Y203D02*
X2321Y203D01*
X2330Y203D02*
X2333Y203D01*
X2341Y203D02*
X2343Y203D01*
X2353Y203D02*
X2355Y203D01*
X2123Y202D02*
X2125Y202D01*
X2135Y202D02*
X2137Y202D01*
X2150Y202D02*
X2152Y202D01*
X2166Y202D02*
X2169Y202D01*
X2188Y202D02*
X2190Y202D01*
X2200Y202D02*
X2202Y202D01*
X2210Y202D02*
X2212Y202D01*
X2222Y202D02*
X2224Y202D01*
X2232Y202D02*
X2234Y202D01*
X2259Y202D02*
X2261Y202D01*
X2303Y202D02*
X2305Y202D01*
X2319Y202D02*
X2321Y202D01*
X2331Y202D02*
X2333Y202D01*
X2341Y202D02*
X2343Y202D01*
X2353Y202D02*
X2355Y202D01*
X2123Y201D02*
X2125Y201D01*
X2135Y201D02*
X2137Y201D01*
X2150Y201D02*
X2152Y201D01*
X2167Y201D02*
X2170Y201D01*
X2188Y201D02*
X2190Y201D01*
X2200Y201D02*
X2202Y201D01*
X2210Y201D02*
X2212Y201D01*
X2221Y201D02*
X2224Y201D01*
X2232Y201D02*
X2234Y201D01*
X2259Y201D02*
X2261Y201D01*
X2303Y201D02*
X2305Y201D01*
X2319Y201D02*
X2321Y201D01*
X2330Y201D02*
X2333Y201D01*
X2341Y201D02*
X2343Y201D01*
X2353Y201D02*
X2355Y201D01*
X2123Y200D02*
X2125Y200D01*
X2135Y200D02*
X2137Y200D01*
X2150Y200D02*
X2152Y200D01*
X2167Y200D02*
X2171Y200D01*
X2188Y200D02*
X2190Y200D01*
X2200Y200D02*
X2202Y200D01*
X2210Y200D02*
X2212Y200D01*
X2220Y200D02*
X2224Y200D01*
X2232Y200D02*
X2235Y200D01*
X2259Y200D02*
X2261Y200D01*
X2303Y200D02*
X2305Y200D01*
X2319Y200D02*
X2321Y200D01*
X2329Y200D02*
X2333Y200D01*
X2341Y200D02*
X2344Y200D01*
X2352Y200D02*
X2354Y200D01*
X2123Y199D02*
X2125Y199D01*
X2135Y199D02*
X2137Y199D01*
X2147Y199D02*
X2155Y199D01*
X2168Y199D02*
X2179Y199D01*
X2188Y199D02*
X2190Y199D01*
X2200Y199D02*
X2202Y199D01*
X2210Y199D02*
X2224Y199D01*
X2232Y199D02*
X2244Y199D01*
X2256Y199D02*
X2264Y199D01*
X2303Y199D02*
X2305Y199D01*
X2319Y199D02*
X2333Y199D01*
X2341Y199D02*
X2354Y199D01*
X2123Y198D02*
X2125Y198D01*
X2135Y198D02*
X2137Y198D01*
X2146Y198D02*
X2157Y198D01*
X2169Y198D02*
X2180Y198D01*
X2188Y198D02*
X2190Y198D01*
X2200Y198D02*
X2202Y198D01*
X2211Y198D02*
X2224Y198D01*
X2233Y198D02*
X2246Y198D01*
X2255Y198D02*
X2266Y198D01*
X2303Y198D02*
X2305Y198D01*
X2320Y198D02*
X2333Y198D01*
X2342Y198D02*
X2353Y198D01*
X2123Y197D02*
X2124Y197D01*
X2135Y197D02*
X2136Y197D01*
X2146Y197D02*
X2157Y197D01*
X2171Y197D02*
X2180Y197D01*
X2188Y197D02*
X2190Y197D01*
X2200Y197D02*
X2202Y197D01*
X2212Y197D02*
X2220Y197D01*
X2222Y197D02*
X2224Y197D01*
X2234Y197D02*
X2245Y197D01*
X2255Y197D02*
X2266Y197D01*
X2303Y197D02*
X2305Y197D01*
X2321Y197D02*
X2329Y197D01*
X2331Y197D02*
X2333Y197D01*
X2343Y197D02*
X2352Y197D01*
X2148Y196D02*
X2155Y196D01*
X2173Y196D02*
X2179Y196D01*
X2214Y196D02*
X2218Y196D01*
X2237Y196D02*
X2244Y196D01*
X2257Y196D02*
X2264Y196D01*
X2323Y196D02*
X2327Y196D01*
X2346Y196D02*
X2349Y196D01*
X2122Y178D02*
X2136Y178D01*
X2155Y178D02*
X2157Y178D01*
X2165Y178D02*
X2178Y178D01*
X2190Y178D02*
X2201Y178D01*
X2221Y178D02*
X2222Y178D01*
X2231Y178D02*
X2244Y178D01*
X2253Y178D02*
X2265Y178D01*
X2274Y178D02*
X2282Y178D01*
X2299Y178D02*
X2307Y178D01*
X2121Y177D02*
X2136Y177D01*
X2155Y177D02*
X2157Y177D01*
X2165Y177D02*
X2179Y177D01*
X2190Y177D02*
X2201Y177D01*
X2220Y177D02*
X2223Y177D01*
X2231Y177D02*
X2244Y177D01*
X2253Y177D02*
X2266Y177D01*
X2274Y177D02*
X2282Y177D01*
X2299Y177D02*
X2307Y177D01*
X2122Y176D02*
X2136Y176D01*
X2154Y176D02*
X2157Y176D01*
X2166Y176D02*
X2179Y176D01*
X2190Y176D02*
X2200Y176D01*
X2220Y176D02*
X2222Y176D01*
X2231Y176D02*
X2244Y176D01*
X2252Y176D02*
X2266Y176D01*
X2275Y176D02*
X2282Y176D01*
X2299Y176D02*
X2307Y176D01*
X2122Y175D02*
X2123Y175D01*
X2133Y175D02*
X2136Y175D01*
X2154Y175D02*
X2156Y175D01*
X2177Y175D02*
X2179Y175D01*
X2190Y175D02*
X2192Y175D01*
X2219Y175D02*
X2222Y175D01*
X2242Y175D02*
X2245Y175D01*
X2252Y175D02*
X2254Y175D01*
X2264Y175D02*
X2266Y175D01*
X2280Y175D02*
X2282Y175D01*
X2299Y175D02*
X2301Y175D01*
X2305Y175D02*
X2307Y175D01*
X2133Y174D02*
X2136Y174D01*
X2153Y174D02*
X2156Y174D01*
X2177Y174D02*
X2179Y174D01*
X2190Y174D02*
X2192Y174D01*
X2218Y174D02*
X2221Y174D01*
X2242Y174D02*
X2245Y174D01*
X2252Y174D02*
X2254Y174D01*
X2264Y174D02*
X2266Y174D01*
X2280Y174D02*
X2282Y174D01*
X2299Y174D02*
X2301Y174D01*
X2305Y174D02*
X2307Y174D01*
X2133Y173D02*
X2136Y173D01*
X2152Y173D02*
X2155Y173D01*
X2177Y173D02*
X2179Y173D01*
X2190Y173D02*
X2192Y173D01*
X2218Y173D02*
X2220Y173D01*
X2242Y173D02*
X2245Y173D01*
X2252Y173D02*
X2254Y173D01*
X2264Y173D02*
X2266Y173D01*
X2280Y173D02*
X2282Y173D01*
X2299Y173D02*
X2301Y173D01*
X2305Y173D02*
X2307Y173D01*
X2133Y172D02*
X2136Y172D01*
X2152Y172D02*
X2154Y172D01*
X2177Y172D02*
X2179Y172D01*
X2190Y172D02*
X2192Y172D01*
X2217Y172D02*
X2220Y172D01*
X2242Y172D02*
X2245Y172D01*
X2252Y172D02*
X2254Y172D01*
X2264Y172D02*
X2266Y172D01*
X2280Y172D02*
X2282Y172D01*
X2299Y172D02*
X2301Y172D01*
X2305Y172D02*
X2307Y172D01*
X2133Y171D02*
X2136Y171D01*
X2151Y171D02*
X2154Y171D01*
X2177Y171D02*
X2179Y171D01*
X2190Y171D02*
X2192Y171D01*
X2217Y171D02*
X2219Y171D01*
X2242Y171D02*
X2245Y171D01*
X2252Y171D02*
X2254Y171D01*
X2264Y171D02*
X2266Y171D01*
X2280Y171D02*
X2282Y171D01*
X2299Y171D02*
X2301Y171D01*
X2305Y171D02*
X2307Y171D01*
X2133Y170D02*
X2136Y170D01*
X2151Y170D02*
X2153Y170D01*
X2177Y170D02*
X2179Y170D01*
X2190Y170D02*
X2192Y170D01*
X2216Y170D02*
X2219Y170D01*
X2242Y170D02*
X2245Y170D01*
X2252Y170D02*
X2254Y170D01*
X2264Y170D02*
X2266Y170D01*
X2280Y170D02*
X2282Y170D01*
X2299Y170D02*
X2301Y170D01*
X2305Y170D02*
X2307Y170D01*
X2132Y169D02*
X2135Y169D01*
X2150Y169D02*
X2153Y169D01*
X2177Y169D02*
X2179Y169D01*
X2190Y169D02*
X2192Y169D01*
X2215Y169D02*
X2218Y169D01*
X2242Y169D02*
X2245Y169D01*
X2252Y169D02*
X2254Y169D01*
X2264Y169D02*
X2266Y169D01*
X2280Y169D02*
X2282Y169D01*
X2299Y169D02*
X2301Y169D01*
X2305Y169D02*
X2307Y169D01*
X2131Y168D02*
X2134Y168D01*
X2150Y168D02*
X2152Y168D01*
X2166Y168D02*
X2179Y168D01*
X2190Y168D02*
X2200Y168D01*
X2215Y168D02*
X2217Y168D01*
X2232Y168D02*
X2244Y168D01*
X2252Y168D02*
X2254Y168D01*
X2264Y168D02*
X2266Y168D01*
X2280Y168D02*
X2282Y168D01*
X2297Y168D02*
X2309Y168D01*
X2130Y167D02*
X2133Y167D01*
X2149Y167D02*
X2151Y167D01*
X2165Y167D02*
X2179Y167D01*
X2190Y167D02*
X2200Y167D01*
X2214Y167D02*
X2217Y167D01*
X2231Y167D02*
X2244Y167D01*
X2252Y167D02*
X2254Y167D01*
X2264Y167D02*
X2266Y167D01*
X2280Y167D02*
X2282Y167D01*
X2296Y167D02*
X2310Y167D01*
X2128Y166D02*
X2132Y166D01*
X2148Y166D02*
X2151Y166D01*
X2165Y166D02*
X2178Y166D01*
X2190Y166D02*
X2201Y166D01*
X2214Y166D02*
X2216Y166D01*
X2231Y166D02*
X2243Y166D01*
X2252Y166D02*
X2254Y166D01*
X2264Y166D02*
X2266Y166D01*
X2280Y166D02*
X2282Y166D01*
X2296Y166D02*
X2310Y166D01*
X2128Y165D02*
X2131Y165D01*
X2148Y165D02*
X2150Y165D01*
X2165Y165D02*
X2167Y165D01*
X2199Y165D02*
X2201Y165D01*
X2213Y165D02*
X2216Y165D01*
X2230Y165D02*
X2233Y165D01*
X2252Y165D02*
X2254Y165D01*
X2264Y165D02*
X2266Y165D01*
X2280Y165D02*
X2282Y165D01*
X2286Y165D02*
X2288Y165D01*
X2296Y165D02*
X2298Y165D01*
X2308Y165D02*
X2310Y165D01*
X2127Y164D02*
X2130Y164D01*
X2147Y164D02*
X2150Y164D01*
X2165Y164D02*
X2167Y164D01*
X2199Y164D02*
X2201Y164D01*
X2213Y164D02*
X2215Y164D01*
X2230Y164D02*
X2233Y164D01*
X2252Y164D02*
X2254Y164D01*
X2264Y164D02*
X2266Y164D01*
X2280Y164D02*
X2282Y164D01*
X2286Y164D02*
X2288Y164D01*
X2296Y164D02*
X2298Y164D01*
X2308Y164D02*
X2310Y164D01*
X2127Y163D02*
X2129Y163D01*
X2147Y163D02*
X2149Y163D01*
X2165Y163D02*
X2167Y163D01*
X2199Y163D02*
X2201Y163D01*
X2212Y163D02*
X2215Y163D01*
X2230Y163D02*
X2233Y163D01*
X2252Y163D02*
X2254Y163D01*
X2264Y163D02*
X2266Y163D01*
X2280Y163D02*
X2282Y163D01*
X2286Y163D02*
X2288Y163D01*
X2296Y163D02*
X2298Y163D01*
X2308Y163D02*
X2310Y163D01*
X2127Y162D02*
X2129Y162D01*
X2146Y162D02*
X2149Y162D01*
X2165Y162D02*
X2167Y162D01*
X2199Y162D02*
X2201Y162D01*
X2211Y162D02*
X2214Y162D01*
X2230Y162D02*
X2233Y162D01*
X2252Y162D02*
X2254Y162D01*
X2264Y162D02*
X2266Y162D01*
X2280Y162D02*
X2282Y162D01*
X2286Y162D02*
X2288Y162D01*
X2296Y162D02*
X2298Y162D01*
X2308Y162D02*
X2310Y162D01*
X2127Y161D02*
X2129Y161D01*
X2145Y161D02*
X2148Y161D01*
X2165Y161D02*
X2167Y161D01*
X2199Y161D02*
X2201Y161D01*
X2211Y161D02*
X2213Y161D01*
X2230Y161D02*
X2233Y161D01*
X2252Y161D02*
X2254Y161D01*
X2264Y161D02*
X2266Y161D01*
X2280Y161D02*
X2282Y161D01*
X2286Y161D02*
X2288Y161D01*
X2296Y161D02*
X2298Y161D01*
X2308Y161D02*
X2310Y161D01*
X2127Y160D02*
X2129Y160D01*
X2145Y160D02*
X2147Y160D01*
X2165Y160D02*
X2167Y160D01*
X2199Y160D02*
X2201Y160D01*
X2210Y160D02*
X2213Y160D01*
X2230Y160D02*
X2233Y160D01*
X2252Y160D02*
X2254Y160D01*
X2264Y160D02*
X2266Y160D01*
X2280Y160D02*
X2282Y160D01*
X2286Y160D02*
X2288Y160D01*
X2296Y160D02*
X2298Y160D01*
X2308Y160D02*
X2310Y160D01*
X2127Y159D02*
X2129Y159D01*
X2144Y159D02*
X2147Y159D01*
X2165Y159D02*
X2167Y159D01*
X2187Y159D02*
X2189Y159D01*
X2199Y159D02*
X2201Y159D01*
X2210Y159D02*
X2212Y159D01*
X2230Y159D02*
X2233Y159D01*
X2252Y159D02*
X2254Y159D01*
X2264Y159D02*
X2266Y159D01*
X2280Y159D02*
X2282Y159D01*
X2286Y159D02*
X2288Y159D01*
X2296Y159D02*
X2298Y159D01*
X2308Y159D02*
X2310Y159D01*
X2127Y158D02*
X2129Y158D01*
X2144Y158D02*
X2146Y158D01*
X2165Y158D02*
X2178Y158D01*
X2187Y158D02*
X2201Y158D01*
X2209Y158D02*
X2212Y158D01*
X2230Y158D02*
X2244Y158D01*
X2252Y158D02*
X2266Y158D01*
X2275Y158D02*
X2288Y158D01*
X2296Y158D02*
X2310Y158D01*
X2127Y157D02*
X2129Y157D01*
X2143Y157D02*
X2146Y157D01*
X2165Y157D02*
X2179Y157D01*
X2187Y157D02*
X2201Y157D01*
X2209Y157D02*
X2211Y157D01*
X2230Y157D02*
X2244Y157D01*
X2253Y157D02*
X2266Y157D01*
X2274Y157D02*
X2288Y157D01*
X2296Y157D02*
X2310Y157D01*
X2128Y156D02*
X2129Y156D01*
X2144Y156D02*
X2145Y156D01*
X2165Y156D02*
X2179Y156D01*
X2189Y156D02*
X2200Y156D01*
X2209Y156D02*
X2210Y156D01*
X2230Y156D02*
X2244Y156D01*
X2253Y156D02*
X2265Y156D01*
X2274Y156D02*
X2288Y156D01*
X2297Y156D02*
X2309Y156D01*
D02*
G04 End of Copper1*
M02*